<svg id="Camada_1" data-name="Camada 1" xmlns="http://www.w3.org/2000/svg" viewBox="0 0 1080 1920"><defs><style>.cls-1{font-size:408.35px;fill:none;stroke-width:3px;font-family:ProFontWindows;}.cls-1,.cls-3{stroke:#fff;stroke-miterlimit:10;}.cls-2,.cls-3{fill:#fff;}.cls-3{stroke-width:2px;}</style></defs><title>cerebro_telemovel</title><text class="cls-1" transform="translate(62.22 1080.78)"><tspan xml:space="preserve"> MYD</tspan></text><path class="cls-2" d="M1010.59,771.22c-4.05-6.61-8.53-13-12.86-19.39q-6.35-9.41-12.75-18.78c-16.94-24.69-34.46-49-53.77-72C912,638.34,891.06,617,867.52,598.76c-24.82-19.24-52.4-34-80.95-46.93-29.26-13.21-59.28-24.67-88.28-38.46q-5.31-2.52-10.57-5.16c-.83-.42-1.57.84-.73,1.26,28.27,14.17,57.77,25.65,86.74,38.26,28.64,12.45,56.85,26.17,82.36,44.33,24,17.12,45.55,37.59,65.1,59.65C941,674,958.79,698,975.84,722.39c8.56,12.25,16.92,24.64,25.25,37.05,8.23,12.25,18.92,26.14,16,41.86a23.13,23.13,0,0,1-4.16,9.65c-.55.75.71,1.47,1.26.73C1023.45,799.25,1017.83,783.06,1010.59,771.22Z"/><path class="cls-2" d="M676.32,520.46a232.05,232.05,0,0,0-54-22.84q-8.08-2.26-16.31-3.93c-.92-.19-1.31,1.22-.39,1.4A230.22,230.22,0,0,1,661.09,514q7.38,3.62,14.5,7.77A.73.73,0,0,0,676.32,520.46Z"/><circle class="cls-3" cx="682.04" cy="504.51" r="7.02"/><path class="cls-2" d="M567.44,492.2a505.61,505.61,0,0,0-125.92,4.27q-17.47,2.8-34.72,6.81c-.91.21-.52,1.61.39,1.4a505,505,0,0,1,124.93-13q17.68.38,35.32,2C568.37,493.74,568.37,492.28,567.44,492.2Z"/><path class="cls-2" d="M924.94,684.2a65.2,65.2,0,0,0-13.09-27.06A59.43,59.43,0,0,0,901,646.81a62.8,62.8,0,0,0-13.41-7.33c-9.85-4-20.31-6.23-30.49-9.24-9.78-2.9-19.68-6.64-27.25-13.71-.94-.88-1.83-1.8-2.69-2.76-.62-.69-1.65.34-1,1,6.77,7.58,16,12.06,25.48,15.24,9.95,3.33,20.26,5.41,30.19,8.82a74.89,74.89,0,0,1,14.05,6.28,56.4,56.4,0,0,1,11.74,9.36,62.94,62.94,0,0,1,14.9,25.92,59.37,59.37,0,0,1,1.16,29.65c-.28,1.24-.6,2.46-1,3.67a.73.73,0,0,0,1.4.39A59.75,59.75,0,0,0,924.94,684.2Z"/><path class="cls-2" d="M352.5,543.84c-9.3-6.75-21.35-8.14-32.44-6.19-12.46,2.19-23.72,8.62-34.25,15.34A667.88,667.88,0,0,0,224,597.11c-19.5,15.86-37.66,33.39-53.26,53.14-8.82,11.18-16.9,22.89-24.79,34.72-3.34,3.85-6.54,7.83-9.64,11.87-8.56,11.16-16.47,22.83-24.52,34.36L93.53,757.35c-2.57,2.82-5.19,5.61-7.91,8.31q-3.12,3.09-6.38,6.06c-.69.63.34,1.65,1,1,2.64-2.4,5.19-4.9,7.7-7.43l-2.09,3-3.23,4.62c-.53.76.73,1.49,1.26.73l10.81-15.49c11.19-12.31,21.13-25.74,30.53-39.47,7.43-10.86,14.57-21.91,21.87-32.86a169.54,169.54,0,0,1,13.57-14,144,144,0,0,1,66.21-34.13c1.48-.32,3-.62,4.47-.9.92-.17.53-1.57-.39-1.4a145.3,145.3,0,0,0-67.43,32,147.28,147.28,0,0,0-10.91,10.28c4.11-6,8.29-12,12.64-17.89A334.09,334.09,0,0,1,215.65,606c19.13-16.48,39.72-31.16,60.76-45.1,10.6-7,21.31-14.42,33.31-18.86,11-4.08,23.57-5.41,34.71-1a33.3,33.3,0,0,1,7.34,4.06C352.52,545.65,353.25,544.39,352.5,543.84ZM129.82,709.33c-8.51,12.74-17.3,25.37-27,37.25q3.39-4.86,6.79-9.73c8.1-11.6,16.07-23.32,24.5-34.69q1.83-2.46,3.7-4.9Q133.83,703.31,129.82,709.33Z"/><path class="cls-2" d="M356.05,598.3a66.47,66.47,0,0,0-16.85,39.4,63.8,63.8,0,0,0,.24,12.28c.11.92,1.57.93,1.46,0a65.1,65.1,0,0,1,9-41,62.22,62.22,0,0,1,7.23-9.7C357.71,598.63,356.68,597.6,356.05,598.3Z"/><path class="cls-2" d="M596.17,694.16A383.18,383.18,0,0,0,526.4,643.9q-10.62-6-21.6-11.23c-.84-.4-1.58.85-.74,1.25a381.29,381.29,0,0,1,72.66,45.59c5.77,4.6,11.39,9.4,16.89,14.34l-2.45-.12c-.94-.05-.93,1.41,0,1.45l4.49.22A.73.73,0,0,0,596.17,694.16Z"/><path class="cls-2" d="M303.08,606.72a145,145,0,0,0-6.37,34.1q-.31,4.95-.29,9.9a.73.73,0,0,0,1.45,0,144,144,0,0,1,6.61-43.61C304.76,606.21,303.36,605.83,303.08,606.72Z"/><path class="cls-2" d="M307.39,589.85c-5.83-7.63-15.87-10.32-25.12-9.17-10.76,1.34-19.87,7.9-27.39,15.35-4.19,4.17-8,8.68-11.83,13.22q-6.12,7.34-12,14.92c-7.8,10.14-15.23,20.57-22.46,31.13s-14.32,21.38-21.35,32.16l-2.61,4c-.51.79.75,1.51,1.26.73,6.81-10.44,13.62-20.88,20.6-31.21s14.18-20.63,21.69-30.65c7.35-9.79,15-19.46,23.18-28.54,7.17-7.91,15.63-15.75,26.17-18.7,8.76-2.45,19.36-1.43,26.26,5a20.43,20.43,0,0,1,2.3,2.53C306.7,591.32,308,590.6,307.39,589.85Z"/><path class="cls-2" d="M876,679.47c-4.91-11.7-14.92-20.26-25.77-26.35A204.48,204.48,0,0,0,829,643.28c-.86-.36-1.23,1.05-.38,1.41,11.87,5,24.15,10.09,33.84,18.81a49,49,0,0,1,10.78,13.59,31.65,31.65,0,0,1,4,15.79c-.25,5.41-2.47,11.19-7.7,13.52-.85.38-.11,1.64.74,1.26,4.72-2.11,7.29-7,8.1-11.88A29.74,29.74,0,0,0,876,679.47Z"/><path class="cls-2" d="M395.38,510.11a500,500,0,0,0-88.08,28.68,522.2,522.2,0,0,0-81.76,44.3,534.47,534.47,0,0,0-72.15,57.38A525,525,0,0,0,92,709.87,501.45,501.45,0,0,0,44,789.2q-2.49,5.16-4.86,10.37c-.38.84.87,1.58,1.26.73a498.68,498.68,0,0,1,46-80.2A521.9,521.9,0,0,1,146,649.65a531,531,0,0,1,71.45-59.33,524,524,0,0,1,79.88-45.52,499.75,499.75,0,0,1,87.54-30.71q5.43-1.35,10.89-2.58C396.68,511.31,396.29,509.91,395.38,510.11Z"/><path class="cls-2" d="M836.1,600.85c-4.75-8.67-13-14.63-22.1-18.07-10.52-3.95-21.79-4.43-32.87-3.27-24.38,2.55-49.54,12.67-74,4.91a45.82,45.82,0,0,1-15.57-8.52,91,91,0,0,1-11.93-12.66c-3.25-4-6.41-8.08-9.82-12,8.11-7.5,18-13,29.06-14.41a38.32,38.32,0,0,1,22.63,4,33.69,33.69,0,0,1,15.32,15.7,28.49,28.49,0,0,1,1.74,5.34c.2.91,1.6.52,1.4-.39-3.44-15.5-19-25.76-34.33-26.43-13.77-.59-26.74,5.83-36.79,15.06l-.11-.13A131.31,131.31,0,0,0,657.44,539a142.94,142.94,0,0,0-54.53-29.26,140.4,140.4,0,0,0-62.21-3.47q-3.8.66-7.54,1.55a.73.73,0,0,0,.38,1.4,137,137,0,0,1,62.4.22,142.46,142.46,0,0,1,55.95,26.84,133.53,133.53,0,0,1,15.85,15,72.07,72.07,0,0,0-6.67,7.36c-.3.39-.59.79-.89,1.19a51.12,51.12,0,0,0-13-5.47,52.83,52.83,0,0,0-20.47-.82c-2.73.36-5.44.84-8.15,1.33a37.79,37.79,0,0,0-5.12-9.32c-5.36-7.16-12.7-12.42-20.53-16.58-4.3-2.29-8.76-4.27-13.23-6.2a74.62,74.62,0,0,0-13.54-4.79c-4.53-1-9.35-1.1-13.73.64s-7.61,4.81-11.36,7.32-8.58,4.64-13.08,2.85a18.55,18.55,0,0,1-5.28-3.67,58.58,58.58,0,0,0-4.86-4c-15.71-11.2-36.24-8.59-53.86-4.42q-3.75.9-7.5,1.85a.73.73,0,0,0,.39,1.4c18-4.51,38.26-9.37,55.72-.33a37.28,37.28,0,0,1,5.23,3.28c1.74,1.31,3.28,2.84,4.94,4.25a16.85,16.85,0,0,0,5.1,3.19,11.56,11.56,0,0,0,6.06.38c4.56-.84,8.29-3.72,11.92-6.4s7.59-5.12,12.33-5.49,9.38.84,13.78,2.42,8.95,3.61,13.32,5.62c8.28,3.81,16.42,8.29,22.89,14.82a39.4,39.4,0,0,1,8.92,13.5,119.41,119.41,0,0,1-14.83,2.07,71,71,0,0,1-19.81-1.86c-25.91-5.89-49.21-22.47-76.4-22.71a68.14,68.14,0,0,0-24.86,4.57c-2.22-1.34-4.47-2.62-6.68-3.93-17.74-10.53-36.17-20.7-56.39-25.54-2.41-.58-4.84-1.07-7.28-1.49-.92-.16-1.31,1.24-.39,1.4,20.07,3.42,38.51,12.53,56,22.6,4.34,2.5,8.65,5.07,12.94,7.65-17.91,7.26-33.31,21.15-45.59,35.85-9.65,11.56-18.25,24-27,36.2-8.83-1.65-17.35-5.16-23.72-11.66-7.1-7.27-10.26-18.47-6.05-28.05,2.23-5.08,6.41-8.42,11.34-10.75,5.19-2.45,10.82-3.9,15.78-6.86,4.15-2.48,7.91-6.12,8.88-11,.79-4-.1-8.65-3.47-11.24-4.67-3.59-11.09-1.43-16.07.22a115.24,115.24,0,0,0-17.2,7.32q-4.18,2.19-8.18,4.73c-.79.5-.06,1.76.73,1.26a114,114,0,0,1,17.29-9q4.36-1.81,8.87-3.26c2.88-.93,5.89-1.88,8.95-1.72a7.89,7.89,0,0,1,6.49,3.57,10.5,10.5,0,0,1,1.38,6.3c-.37,5.33-4.3,9.22-8.7,11.78-4.88,2.84-10.39,4.29-15.48,6.69-4.85,2.28-9.08,5.57-11.49,10.45-4.37,8.84-2.64,19.78,3.22,27.51,6.35,8.36,16.36,13.09,26.48,15.06l0,.07L376,652.61l-7.35,10.2c-.55.76.71,1.49,1.25.74L399.11,623c2.76-3.83,5.52-7.69,8.27-11.54a90.45,90.45,0,0,0,12.74,1.16c-1.1,10.71,1.8,23.28.27,32.9a26.78,26.78,0,0,1-5.18,12.43,29.63,29.63,0,0,1-9.88,8l-.18.09a59.12,59.12,0,0,0-19.29,3.67,54.51,54.51,0,0,1-9.27-1.34,72,72,0,0,1-7.45-2.16c-.88-.31-1.26,1.1-.38,1.4a66.42,66.42,0,0,0,14,3.3c-2.31,1-4.57,2-6.77,3.22-12.63,6.78-23,16.84-32.21,27.64-4.82,5.62-9.38,11.46-14,17.25-2.31,2.9-4.62,5.79-7,8.65-1.56,1.89-3.13,3.8-4.8,5.6a68.64,68.64,0,0,1-3.77-20.67c-.31-12.74,3.31-26.32,12.83-35.29,8.29-7.82,20.77-12,31.94-8.68a26.07,26.07,0,0,1,4.05,1.61c.83.41,1.57-.84.73-1.26-10.89-5.41-24.08-2.9-33.72,4-10.87,7.78-16.24,20.73-17.16,33.77a68.55,68.55,0,0,0,4,27.7c-.34.34-.67.7-1,1a18.14,18.14,0,0,1-8.33,4.92,12.09,12.09,0,0,1-8.94-1.68c-6.12-3.76-8.55-10.8-9.14-17.63a100.44,100.44,0,0,1-.12-11.51c.11-4.05.3-8.11.56-12.15q.79-12.4,2.53-24.72.44-3,.91-6a.74.74,0,0,0-1.07-.83c-12,5.87-16.94,19.43-21.55,31-1.19,3-2.73,6.24-5.62,8a3.6,3.6,0,0,1-4.07,0c-1.37-1-1.84-2.77-2.17-4.33a99,99,0,0,1-1.9-22.79,107,107,0,0,1,10.83-44.21,104.5,104.5,0,0,1,26.36-33.66,106.33,106.33,0,0,1,36.74-20.29c1.62-.51,3.25-1,4.89-1.4a.73.73,0,0,0-.39-1.41,107.73,107.73,0,0,0-38.54,19.06A106.13,106.13,0,0,0,268.48,629a108.54,108.54,0,0,0-12.82,44.78,106,106,0,0,0,1.11,23.47c.49,3.09.79,7.46,3.91,9.15,2.77,1.51,5.68-.26,7.56-2.34,2.34-2.59,3.46-5.8,4.73-9s2.56-6.36,4-9.46c2.84-6,6.42-11.94,11.82-16a24.28,24.28,0,0,1,2.86-1.82,303.44,303.44,0,0,0-3.92,47.86c0,7,.85,14.53,5.43,20.18,3.92,4.82,10.22,7.64,16.31,5.46a22.31,22.31,0,0,0,8-5.31,69.78,69.78,0,0,0,4.37,9.3c.31.55.63,1.09,1,1.64-5.36.85-10.7,1.83-16,3l-4.33,1c-.91.22-.52,1.62.39,1.41,6.88-1.6,13.81-2.92,20.79-4,6.31,9.94,15.4,18.23,26.55,22.33,12,4.42,26.12,4.06,37.36-2.36a40.58,40.58,0,0,0,4-2.65c.73-.56,0-1.82-.74-1.26-10,7.61-23.42,9.38-35.47,6.34-12.33-3.11-22.61-11.36-29.61-21.84-.18-.26-.34-.53-.52-.8,4.19-.63,8.38-1.21,12.59-1.67a303.56,303.56,0,0,1,70.34.61c6.73.85,13.42,2,20.08,3.24-1.71,1.78-3.38,3.58-5,5.43-.62.71.41,1.74,1,1,1.83-2.09,3.73-4.12,5.67-6.12,4.37.88,8.74,1.83,13.07,2.9a296.06,296.06,0,0,1,33.56,10.43l4.14,1.6c.78.31,1.25-.92.56-1.33l-3.3-2a.68.68,0,0,0-1,.34,300.27,300.27,0,0,0-29.59-9.46q-8-2.1-16.18-3.75a169,169,0,0,1,43-31.25q7.11-3.62,14.53-6.58a151.76,151.76,0,0,1,50.82,19.34c.95.58,1.88,1.17,2.81,1.76a182.56,182.56,0,0,0-23.67,9c-1.78.8-3.55,1.64-5.31,2.48-.85.41-.11,1.66.73,1.26a188.5,188.5,0,0,1,29.89-11.66,157.53,157.53,0,0,1,42.19,40.69,152.74,152.74,0,0,1,15.68,27.95c4.12,9.59,7.21,20.11,14.3,28.05a30.71,30.71,0,0,0,5.66,5c2.5,1.69,5.25,3,7.89,4.42a28.63,28.63,0,0,1,11.72,11.69c5.93,11,5,23.94,2.6,35.82-.67,3.29-1.45,6.56-2.22,9.82-.22.91,1.18,1.3,1.4.39,3-12.43,6-25.56,2.76-38.25a34.94,34.94,0,0,0-7-14A27.25,27.25,0,0,0,633,840c-2.65-1.72-5.54-3-8.28-4.6-9.92-5.71-14.5-16.21-18.58-26.39a175.45,175.45,0,0,0-14.35-28.85,159,159,0,0,0-44.91-46.32l-1.08-.71a118.33,118.33,0,0,1,12.79-2.76,90.59,90.59,0,0,1,23.26-.73,81.8,81.8,0,0,1,20.1,4.78c12.76,4.75,24.32,12.42,34.34,21.57,10.75,9.8,19.69,21.39,27.46,33.65,8.17,12.89,15.09,26.51,21.84,40.18.82,1.65,1.64,3.31,2.45,5,.41.84,1.67.11,1.26-.73-6.86-13.93-13.74-27.87-21.81-41.15-7.68-12.63-16.47-24.71-27.09-35a112.91,112.91,0,0,0-33.89-23.17A85.78,85.78,0,0,0,564,728.24a117.71,117.71,0,0,0-19.81,3.83,153.33,153.33,0,0,0-52.92-21.55A171.51,171.51,0,0,1,534.9,700.1a162.54,162.54,0,0,1,61.47,5.47,173,173,0,0,1,54.85,27.17,168.64,168.64,0,0,1,42,44.81q2,3.13,3.85,6.38a.73.73,0,0,0,1.26-.73,168.73,168.73,0,0,0-40.3-47,175.56,175.56,0,0,0-53.73-29.65,164,164,0,0,0-61.92-8.46,173.33,173.33,0,0,0-53.81,12c-2-.37-4-.71-6-1a158.21,158.21,0,0,0-73.13,6.67q-4.26,1.46-8.43,3.16c-.86.35-.48,1.75.38,1.4a156.27,156.27,0,0,1,72-10.82Q479.75,710,486,711c-1.78.74-3.55,1.49-5.31,2.29A170.3,170.3,0,0,0,429.41,749q-8.39-1.66-16.86-2.85a304.21,304.21,0,0,0-70.84-1.6q-8.73.83-17.38,2.16a68.31,68.31,0,0,1-5.75-11.82c2.15-2.27,4.09-4.77,6-7,4.78-5.81,9.37-11.76,14.09-17.61,9.26-11.46,19.15-22.75,31.54-30.93a78,78,0,0,1,15.8-8.1,41.47,41.47,0,0,0,13.57-1.41,35.78,35.78,0,0,0,6-2.31c1.44,0,2.9,0,4.35.17a44.17,44.17,0,0,1,5.12.75c.91.18,1.31-1.22.39-1.41a48.5,48.5,0,0,0-7.35-.89,28.63,28.63,0,0,0,11.16-11.82c4.41-9,3.06-19.37,2.4-29a72.27,72.27,0,0,1-.06-12.58c7.85.11,15.75-.5,23.53-.92,11.3-.61,22.62-1.4,33.89-2.57a62.86,62.86,0,0,0-1,6.48c-1.54,15.08,1.25,30.14,1.12,45.23a90.45,90.45,0,0,1-.86,12c-4,.85-7.89,2-11.73,3.16-18.29,5.64-36.54,11.43-54.8,17.14l-31.11,9.73c-.89.28-.51,1.69.39,1.41l54.26-17,26.95-8.43c5.21-1.63,10.46-3.33,15.81-4.5A50.94,50.94,0,0,1,470.27,695a36.29,36.29,0,0,1-5.73,6.58c-.69.62.34,1.65,1,1,8.17-7.37,12.21-17.87,13.92-28.54a58.33,58.33,0,0,1,9-1.13c8.45-.34,17.39,1.8,23.59,7.85.67.65,1.7-.38,1-1-5.47-5.34-13-7.82-20.54-8.25a52.71,52.71,0,0,0-12.9,1c.05-.3.09-.6.13-.9,1.77-13.91-.39-27.85-.81-41.77-.21-6.79-.1-14.08,1.42-20.91,11.56-1.24,23.06-2.92,34.45-5.28q5-1,9.86-2.26a339.14,339.14,0,0,1,25,24.29c4.64,5,8.93,10.32,13.56,15.33,3.95,4.26,8.56,8.55,14.23,10.32,5.3,1.65,10.58.26,14.88-3.07s7.45-7.76,11.72-11a18.57,18.57,0,0,1,3.68-2.22l-4.07,21.42c-.47,2.49-.94,5-1.42,7.48-.17.91,1.23,1.3,1.41.38q2.84-15,5.68-30a19.24,19.24,0,0,1,9.81-.77,28.35,28.35,0,0,1,12.73,6c-.58,10.36.6,20.71,4.83,30.3a54.51,54.51,0,0,0,10.51,15.67c.85,9.69,2.06,19.42,6.34,28.25a38.75,38.75,0,0,0,4.82,7.58c.59.73,1.61-.31,1-1-7.55-9.32-9.53-21.55-10.6-33.22,6.29,6,14.08,10.25,22.79,11.33a34.61,34.61,0,0,0,5.76.21c.93-.05.93-1.5,0-1.46-11.11.52-21.16-4.66-28.76-12.36,0-.29-.05-.59-.07-.88-1.06-13-1.79-27.19-9.24-38.41A32.67,32.67,0,0,0,633.5,639a113.27,113.27,0,0,1,3-19.42,236.92,236.92,0,0,1,8.77-28.11,132.35,132.35,0,0,1,12.37-25.58c.93-1.44,1.93-2.86,3-4.25,22.12,13.5,31.63,40,37.66,64.18.88,3.53,1.71,7.06,2.55,10.6.21.91,1.61.53,1.4-.39-6.36-27-13.87-56.63-37.83-73.61-1-.67-1.94-1.31-2.93-1.93a73.82,73.82,0,0,1,7.31-8.21q2.82,3.16,5.48,6.48c7.07,8.81,14.09,18.1,24.24,23.55,21.55,11.58,46.92,4.68,69.44.6,12-2.17,24.37-3.74,36.43-1.36,9.82,1.93,19.53,6.27,26.24,13.89a33.85,33.85,0,0,1,4.28,6.13C835.3,602.41,836.55,601.67,836.1,600.85ZM390.44,669.73a55.72,55.72,0,0,1,10.91-2.07A37.57,37.57,0,0,1,390.44,669.73Zm29.86-58.62c-1.9,0-3.79-.1-5.68-.24-2.1-.15-4.21-.39-6.3-.73,6.19-8.67,12.41-17.33,18.86-25.81,14.22-18.65,31.66-37.08,53.8-45.57,3.31,2,6.67,4,9.18,7a13.94,13.94,0,0,1,2.48,13.16c-1.34,4.64-4.51,8.41-8.13,11.5a81,81,0,0,1-12.2,8.32,108.94,108.94,0,0,1-13.78,6.72A115,115,0,0,1,444.6,590c-4.21,1.1-8.5,2.11-12.45,4C424.37,597.73,421.32,603.94,420.3,611.11Zm101.63-10.46a332.21,332.21,0,0,1-41.11,6.83,34.06,34.06,0,0,1,7-14c3.37-3.9,8-6.72,13.26-6.59,6.81.18,12.43,4.93,17.39,9.08,1.68,1.4,3.31,2.84,4.95,4.27C522.92,600.41,522.43,600.54,521.93,600.65Zm86.23,32.65a30.45,30.45,0,0,0-9.61,7.14c-3.68,3.76-7.37,8.23-12.64,9.72-5.93,1.68-11.64-1.18-16.13-4.9-5-4.18-9-9.43-13.36-14.32A339.4,339.4,0,0,0,526.49,601c18.34-4.7,36.16-11.52,52.31-21.49,2.45-1.51,4.86-3.1,7.23-4.75.76-.53,0-1.79-.74-1.25-18.12,12.64-38.76,20.94-60.11,26.32-2.57-2.24-5.16-4.46-7.81-6.61a45.26,45.26,0,0,0-8.16-5.57c-5.12-2.55-10.89-3-16-.33-4.65,2.39-8.11,6.72-10.5,11.29a39.7,39.7,0,0,0-3.34,9c-9.09,1-18.21,1.66-27.32,2.22q-8.78.52-17.54.92c-4.23.2-8.48.35-12.71.33.74-5,2.59-9.72,6.68-13.09,3.48-2.87,7.91-4.3,12.19-5.47,4.67-1.28,9.34-2.43,13.91-4a109.41,109.41,0,0,0,27.13-14c3.87-2.78,7.58-6,10.11-10.06A18.33,18.33,0,0,0,494.41,551c-1-4.39-4.15-7.69-7.68-10.25-1.29-.93-2.62-1.8-4-2.64a72.69,72.69,0,0,1,13.1-3.34c27.2-4.25,51.57,11.2,76.49,19.22a98.48,98.48,0,0,0,18.49,4.22,74.64,74.64,0,0,0,20.89-.73c2-.32,3.91-.68,5.86-1a32.88,32.88,0,0,1,1.68,8.31,64.22,64.22,0,0,1-1,14.84c-.82,5.07-1.85,10.11-2.81,15.16Q611.81,614,608.16,633.3Zm25.48,7.78c9.64,9,11.77,23.1,12.91,35.62.2,2.16.38,4.34.56,6.53a52.46,52.46,0,0,1-6.56-9.09c-5.81-10.21-7.62-21.73-7.16-33.27Zm13.16-57.4a242.26,242.26,0,0,0-9.91,28.56,131.13,131.13,0,0,0-4.82,25.62c-5.76-4.42-13-7-20.16-5.68a16.78,16.78,0,0,0-2.17.54q3-15.68,6-31.35,1.48-7.82,3-15.62a114.69,114.69,0,0,0,2.1-14.87,40.28,40.28,0,0,0-1.55-14.4c0-.11-.08-.21-.11-.31a94.54,94.54,0,0,1,16.16-1.91,45.47,45.47,0,0,1,19.31,4.19c1.65.75,3.23,1.57,4.76,2.45A112.4,112.4,0,0,0,646.8,583.68Z"/><path class="cls-2" d="M1026.5,915.2c-3.1-8.47-8.4-16.35-15.94-21.46A34.84,34.84,0,0,0,997,888.39l-2-.33a85.14,85.14,0,0,0,.34-21.23,165.09,165.09,0,0,0-6.19-29.33c-2.51-8.5-5.33-16.92-8.61-25.16a174.72,174.72,0,0,0-13.7-27.65c.83-3.27,1.57-6.57,2.14-9.91,2.93-17.24,1.1-38-12-50.91a36.35,36.35,0,0,0-5.11-4.15c-.77-.53-1.5.73-.73,1.25,15.69,10.68,19.1,31.65,17.06,49.26a107.32,107.32,0,0,1-2.35,12.86,113.62,113.62,0,0,0-10.88-14.41,87.27,87.27,0,0,0-18.94-16A99,99,0,0,0,910.74,742c-18.12-5.16-37.12-7.08-54.76-13.94-1.29-.5-2.56-1-3.82-1.61,1-8-1.21-16.31-4.63-23.66,5,1.42,9.9,2.93,14.83,4.46.9.27,1.28-1.13.39-1.41-5.35-1.65-10.7-3.29-16.09-4.81-5.33-10.7-13.1-20.16-20.9-29.13A270.11,270.11,0,0,0,802.17,648a77.87,77.87,0,0,1,.7-9.52c.12-.91-1.28-1.31-1.41-.38a80.7,80.7,0,0,0-.69,8.63c-.45-.39-.88-.8-1.33-1.19a272.47,272.47,0,0,0-61.18-40.38q-4.15-2-8.38-3.85c-.85-.37-1.59.88-.73,1.26a270.72,270.72,0,0,1,63.15,38.81c2.87,2.36,5.68,4.8,8.45,7.28a86.51,86.51,0,0,0,7.64,35.47,91.14,91.14,0,0,0,5.55,10.47,99,99,0,0,0-17.89.06,78.46,78.46,0,0,0-10.51,1.79,74.25,74.25,0,0,1-3-6.83,61.4,61.4,0,0,1-3.84-30.37c.18-1.28.41-2.55.68-3.81.2-.92-1.21-1.31-1.4-.39A61,61,0,0,0,779.7,686a73.49,73.49,0,0,0,4.39,10.81,70.29,70.29,0,0,0-18.35,7.65,154.27,154.27,0,0,0-13.89,9.65L745,685.15,736.22,648q-4.41-18.69-8.83-37.37c-.37-1.55-.73-3.09-1.1-4.64a.73.73,0,0,0-1.4.38l8.83,37.37,8.79,37.17L750.58,715c-3.54,2.69-7.08,5.38-10.75,7.88-8.59,5.86-18.38,11-29,11.54a35.87,35.87,0,0,1-3.88,0c-.94,0-.94,1.41,0,1.46,17.08.86,30.78-9.44,44-19.36.13.57.27,1.13.4,1.7l8.79,37.17q4.41,18.69,8.83,37.37c.37,1.55.73,3.1,1.1,4.64.22.92,1.62.53,1.4-.38q-4.41-18.69-8.83-37.36l-8.79-37.18-1.63-6.91c3.29-2.48,6.56-4.91,9.85-7.11a75.61,75.61,0,0,1,14.09-7.65,68.6,68.6,0,0,1,8.62-2.76,85.52,85.52,0,0,0,10.37,15.45,94.44,94.44,0,0,0,25.34,20.89,132.21,132.21,0,0,0,20.06,9.3,48.61,48.61,0,0,1-12.08,6.81c-4.73,1.92-9.6,3.45-14.44,5.06l-1.25-1.16q-1.59-1.44-3.22-2.83c-.71-.6-1.74.42-1,1,1.34,1.14,2.64,2.31,3.93,3.5A106,106,0,0,0,800.22,761a47.65,47.65,0,0,0-22.64,23.11,46,46,0,0,0-2.5,32.13A48.56,48.56,0,0,0,793.72,842a45.1,45.1,0,0,0,7.16,4.05c.85.38,1.59-.87.74-1.26a46.53,46.53,0,0,1-23.11-23.47,44.3,44.3,0,0,1-1.13-33,46.22,46.22,0,0,1,21.85-25.27,96.85,96.85,0,0,1,14.41-5.85,134.55,134.55,0,0,1,27,35.31A86.42,86.42,0,0,1,847,807.3c2.85,9.13,4,20.26-2.07,28.37-5.12,6.8-16.19,10-17.1,19.37a44.46,44.46,0,0,1-8.91-7.57,33.7,33.7,0,0,1-3.5-4.74c-.49-.8-1.75-.07-1.26.73a42.63,42.63,0,0,0,13.61,13.25c.15,4.88,2.68,9.37,5.21,13.57a.72.72,0,0,0,.7,1.17l1.09,1.82L845,890.75l2.56,4.37a.72.72,0,0,0,1.25-.73L838.6,876.91l-3.6-6.15q4.68-2.67,9.17-5.65c3.74,1.66,7.5,3.27,11.18,5,7.28,3.48,14.55,7.59,19.81,13.86a33,33,0,0,1,6.52,12.87c1.55,5.84,1.89,11.9,2.46,17.88a81.57,81.57,0,0,0,1.76,11.49,98.46,98.46,0,0,1-20.6-18.64,102.47,102.47,0,0,1-7.53-10.3c-.5-.79-1.76-.06-1.26.73a100.67,100.67,0,0,0,30,30.31c1.6,5.6,4.25,10.79,8.87,14.51,6,4.85,16.1,5.28,21.89-.25a11,11,0,0,0,1.48-1.77,69.93,69.93,0,0,0,22.73-.16c15.53-2.7,30.45-10.61,40.62-22.77a59,59,0,0,0,12.68-28.42,45.44,45.44,0,0,1,6.7,1.44c8.93,2.76,15.94,9.55,20.43,17.58,11.37,20.37,5.44,43.94-2,64.55-1,2.86-2.11,5.7-3.18,8.54-.33.88,1.08,1.26,1.41.39C1026,961,1034.62,937.44,1026.5,915.2ZM850.81,725.83a83.24,83.24,0,0,1-33.65-28.92l-.39-.6c2.6.28,5.19.63,7.77,1.07a204.4,204.4,0,0,1,21.15,4.89C849.3,709.61,851.78,717.8,850.81,725.83Zm-48.63-75.16c0-.24,0-.47,0-.71,6,5.42,11.73,11.07,17.2,17q6.25,6.78,12,14a138,138,0,0,1,10.91,15.2c.85,1.41,1.68,2.88,2.47,4.39-5.21-1.44-10.45-2.74-15.75-3.78-4.39-.86-8.82-1.53-13.28-2A86.36,86.36,0,0,1,802.18,650.67Zm23.64,85a97,97,0,0,1-26.36-19.49,84.21,84.21,0,0,1-13.24-18.45c1.72-.4,3.45-.76,5.19-1a95.35,95.35,0,0,1,23.51-.58,86,86,0,0,0,23.39,24.3,77.66,77.66,0,0,0,12.28,6.87,25.44,25.44,0,0,1-8.77,15.35A135,135,0,0,1,825.82,735.69Zm8.45,133.81-.82-1.4a33.37,33.37,0,0,1-3.77-8.43,13.87,13.87,0,0,1-.36-2c1,.58,1.92,1.14,2.9,1.67,3.38,1.85,6.86,3.48,10.37,5.06Q838.53,867.08,834.27,869.5Zm65.59,74.41c-4.38-1.8-7.59-5.8-9.67-9.93a34,34,0,0,1-1.82-4.42q2.58,1.58,5.26,3a81.33,81.33,0,0,0,23.49,8.05C913.34,945.37,905.31,946.17,899.86,943.91Zm89.26-40c-6.5,14.64-19.42,25.65-34.17,31.45a69.86,69.86,0,0,1-35.48,4.12c1.46-3.1,1.36-6.75.58-10.24-.73-3.29-1.72-6.54-2.6-9.79s-1.81-6.67-2.72-10l-10.86-40q-5.4-19.9-10.81-39.81l-10.86-40-2.67-9.82a.73.73,0,0,0-1.4.39q5.34,19.63,10.67,39.28l10.62,39.11q5.34,19.64,10.67,39.28,2.65,9.74,5.29,19.47,1.33,4.89,2.65,9.77c.83,3.09,1.64,6.38.92,9.57a9.77,9.77,0,0,1-1,2.54,73.77,73.77,0,0,1-11.14-2.7,84.94,84.94,0,0,1-19.13-9.14,59.19,59.19,0,0,1-1.64-8.22c-1.44-11-1-22.71-7.12-32.45-4.2-6.7-10.7-11.45-17.55-15.18-5.13-2.78-10.49-5.08-15.82-7.44a150.83,150.83,0,0,0,14-10.81c.71-.61-.32-1.64-1-1A149.14,149.14,0,0,1,844,863.45q-2.68-1.19-5.34-2.44a97.27,97.27,0,0,1-9.42-5.08,10.71,10.71,0,0,1,1.1-4.47,16.88,16.88,0,0,1,4.26-5.07c3.57-3,7.79-5.38,10.83-9,6.38-7.68,6.16-18.35,3.8-27.53a75.66,75.66,0,0,0-5.65-14.6,136.44,136.44,0,0,0-8.54-14.84,137.86,137.86,0,0,0-19.84-23.67c4.16-1.38,8.35-2.71,12.43-4.3a51.75,51.75,0,0,0,14.53-8.11q5.46,2,11,3.53a284.57,284.57,0,0,0,35.19,7.28l4.31.63c.92.13,1.31-1.27.39-1.4a324,324,0,0,1-34.54-6.57c-5.1-1.31-10.16-2.82-15.14-4.57a28,28,0,0,0,6-7.71,26.64,26.64,0,0,0,2.56-7.6c11.56,5,24.1,7.74,36.44,10.34,18,3.78,36.2,7.79,51.37,18.68,10.4,7.46,18.75,17.3,25.54,28.09-4.45,17.44-11.85,34.25-13,52.39-1,16.5,4.35,35.84,18.71,45.52A33.9,33.9,0,0,0,983.83,888c3.17.59,6.4.89,9.59,1.33A59.78,59.78,0,0,1,989.12,903.92Zm4.51-16c-4.83-.65-9.72-1-14.37-2.54-17.53-5.74-25.2-25.68-25.59-42.68-.26-11.32,2.66-22.53,5.85-33.29,2.24-7.57,4.74-15.09,6.77-22.73q2.67,4.38,5,8.92c8.11,15.64,14,32.61,18.44,49.64C993.31,858.92,995.66,873.73,993.63,887.88Z"/><path class="cls-2" d="M262,849.73c-8.86-11.52-24.75-14.88-38.54-13.94C206.12,837,190,844.5,173.4,849l-.44.11a83.34,83.34,0,0,1-12.8-39.34,82.68,82.68,0,0,1,23.88-63c.66-.67-.36-1.7-1-1a84.59,84.59,0,0,0-21.89,38.58,83.93,83.93,0,0,0,10.34,65.18,198.24,198.24,0,0,1-77,4.35c-4.27-.61-8.53-1.33-12.74-2.25a48.26,48.26,0,0,1-11.3-3.7c-6.4-3.21-11.91-9.41-11.5-17a12,12,0,0,1,4-8.25,18,18,0,0,1,7.68-3.76c6.1-1.57,12.46-1.43,18.68-2.08a50.6,50.6,0,0,0,19.15-6.07,52.52,52.52,0,0,0,25.3-31.41c4.68-16.62,1.46-34.09,3.84-51,1.09-7.75,3.36-15.66,8.09-22A30.66,30.66,0,0,1,163,694.54a21.39,21.39,0,0,1,10,.13.73.73,0,0,0,.39-1.4c-6.72-1.74-13.73-.09-19.54,3.52A35.46,35.46,0,0,0,140.2,713c-6.76,15.61-4.48,33-5.38,49.52-.46,8.28-1.77,16.65-5.39,24.19A51,51,0,0,1,116.94,803a51.56,51.56,0,0,1-18.08,10.28,47.74,47.74,0,0,1-10.1,2.1c-3.15.3-6.31.44-9.46.7-5.79.49-12.19,1.27-16.86,5-5.15,4.16-6.11,11.09-3.62,17,2.92,6.91,9.41,11,16.3,13.19A90.21,90.21,0,0,0,87,854.07c4.35.78,8.74,1.41,13.14,1.9A200.05,200.05,0,0,0,153,854.78q9.73-1.53,19.28-4c.55.83,1.11,1.66,1.68,2.48s1.8,0,1.26-.74-1-1.42-1.47-2.15c1.71-.46,3.42-.92,5.12-1.43,8.53-2.54,16.88-5.64,25.44-8,14.9-4.2,31.8-6.26,46.07,1.2a30.51,30.51,0,0,1,14,14.42A27.42,27.42,0,0,1,266,875.4a20.24,20.24,0,0,1-4.52,7.94c-.63.68.39,1.72,1,1C271.39,874.8,269.56,859.5,262,849.73Z"/><path class="cls-2" d="M230.8,996c-4.14-18.55-.45-37.58-1-56.34a89,89,0,0,0-1.65-15.09c.28.22.54.46.82.68.73.56,1.77-.46,1-1s-1.57-1.28-2.35-1.92a58.29,58.29,0,0,0-2.73-8.62,60.83,60.83,0,0,0-11.59-18.09,71.26,71.26,0,0,0-12.15-10.46,44.82,44.82,0,0,1-2.24-8.25,16.48,16.48,0,0,1,.79-9.3,11.67,11.67,0,0,1,6.28-6c7.41-3.12,15.33.12,22.22,3.07.85.36,1.59-.89.73-1.26-6.51-2.78-13.56-5.71-20.76-4a14.78,14.78,0,0,0-7.69,4.32,13.88,13.88,0,0,0-3.3,8.64,30.77,30.77,0,0,0,2,11.46,84.89,84.89,0,0,0-23.58-10.37c-16.17-4.37-33.17-3.67-49.38.19A164.25,164.25,0,0,0,92.71,886c-2.13-1-4.26-2-6.39-3Q67.74,874,49.59,864.17c-2.74-1.48-5.57-2.89-8.19-4.59-2.13-1.38-4.37-3.16-5.24-5.65-1.81-5.2,3.33-9.09,7.81-10.19,3-.74,6.21-.33,9.25.07a43.5,43.5,0,0,0,10,.63A23.61,23.61,0,0,0,76.69,838c8.88-8.21,11.75-20.07,14.52-31.37,1.52-6.16,3.15-12.31,6-18a61.63,61.63,0,0,1,9.1-13.61,68.55,68.55,0,0,1,26.94-18.64,81,81,0,0,1,38.06-4.41c12,1.4,24.21,5.09,34.22,12,9.58,6.61,17,16.85,18.33,28.65a31.37,31.37,0,0,1-.21,8.49c-.15.91,1.25,1.31,1.4.39,1.93-11.71-2.82-23.62-10.87-32.07-8.37-8.8-19.86-14-31.51-16.87a87,87,0,0,0-39.14-.75,72,72,0,0,0-31.4,15.45,63.92,63.92,0,0,0-19,27.43c-4.24,12.16-5.07,25.76-12.53,36.63-3.06,4.44-7.19,8.44-12.28,10.44a20.61,20.61,0,0,1-8.69,1.33c-3.44-.18-6.82-.9-10.25-1.11-5.08-.31-10.87,1.13-13.77,5.71a7.75,7.75,0,0,0-.8,6.66,12.51,12.51,0,0,0,4.76,5.74,71.27,71.27,0,0,0,7.9,4.59q4.71,2.57,9.45,5.06,9.41,5,18.92,9.69c5.06,2.51,10.15,5,15.25,7.36-5.33,2.65-10.56,5.51-15.68,8.51q-2.92,1.71-5.82,3.49c-.79.49-.06,1.74.74,1.25,7.28-4.47,14.77-8.68,22.46-12.45q10.82,5.07,21.77,9.85,4.67,2,9.36,4c.86.36,1.24-1,.39-1.41q-15.06-6.33-29.87-13.27a168.59,168.59,0,0,1,25.7-10c16.15-4.71,33.43-6.57,50-3.13A83.61,83.61,0,0,1,200,886.13c.74,1.89,1.55,3.74,2.35,5.51a89,89,0,0,0,24,31.46,77,77,0,0,1,1.76,11.6c1.39,18.37-2.29,36.81.15,55.15q.44,3.31,1.16,6.58C229.6,997.34,231,997,230.8,996ZM205.53,894.88c-1.2-2.33-2.36-4.76-3.4-7.25a70,70,0,0,1,6.77,5.61,61.47,61.47,0,0,1,12.84,17,56.65,56.65,0,0,1,4,10.47A88.91,88.91,0,0,1,205.53,894.88Z"/><path class="cls-2" d="M761.82,802.24a33.48,33.48,0,0,0-17.63-10.72,33,33,0,0,0-20.62,1.89,32.27,32.27,0,0,0-4.81,2.59.7.7,0,0,0-.77.13l-4.44,4c-.67.66.34,1.65,1,1a32.12,32.12,0,0,1,18.28-8.8,31.47,31.47,0,0,1,19.2,3.79,32,32,0,0,1,8.74,7.14C761.41,804,762.43,803,761.82,802.24Z"/><path class="cls-2" d="M187.15,948.31s0,0,0,.06c-.28-.09-.56-.16-.79-.24-1.19-.44-2.36-.92-3.51-1.45a49.54,49.54,0,0,1-6.4-3.48,37.08,37.08,0,0,1-10.58-10,25.38,25.38,0,0,1-4.62-12.67,24.71,24.71,0,0,1,2.33-12.3,18.33,18.33,0,0,1,9.82-9.35c.87-.32.49-1.73-.39-1.4-8.28,3.11-12.85,11.69-13.24,20.21-.45,9.79,5,18.49,12.56,24.36A51.52,51.52,0,0,0,187,949.92a1.53,1.53,0,0,0,2.68-.23C190.2,948.23,188.12,947.26,187.15,948.31Z"/><path class="cls-2" d="M267.22,952.82l-2.64-1.24c-.84-.4-1.58.86-.73,1.26l2.26,1.06-1,37.86-.48,19.25c-.07,2.71,0,5.45-.36,8.14a12.85,12.85,0,0,1-2.36,6.57c-3.26,4-8.9,3.37-13.33,2.09-2.66-.77-5.24-1.82-7.83-2.81l-8.79-3.33-17.92-6.79c-5.83-2.2-11.62-4.54-17.54-6.5-10.13-3.34-21.85-5.16-31.62.31a25.08,25.08,0,0,0-3,2.06c-.74.57.29,1.59,1,1,9.2-7.16,21.75-5.65,32.12-2.36,5.92,1.87,11.69,4.22,17.5,6.42l18.09,6.85,9,3.4c2.7,1,5.37,2.12,8.13,3,4.27,1.3,9.51,2.16,13.41-.58s4.71-7.9,4.89-12.44c.25-6.33.33-12.67.49-19q.48-19.35,1-38.68c0-1.64.09-3.27.13-4.91A.72.72,0,0,0,267.22,952.82Z"/><path class="cls-2" d="M1056.88,1021.44a104.42,104.42,0,0,0-5.22-13.66c-4-9.1-8.44-18.63-7.29-28.85s6.82-19,10.44-28.34a53.23,53.23,0,0,0,2.94-28.23,54.27,54.27,0,0,0-11.6-25.1c-5.49-6.79-12.15-12.88-16.22-20.7a24.79,24.79,0,0,1-3-12.64c.24-5.42,2.33-10.55,4.24-15.56,2.94-7.73,5.76-16.94,1.67-24.83a13.71,13.71,0,0,0-3.61-4.4c-.72-.58-1.75.44-1,1,7,5.68,5.7,16.06,3.09,23.63-3.15,9.14-7.75,18.16-4.87,28,2.34,8,8.21,14.41,13.6,20.53a103.1,103.1,0,0,1,8.4,10.39,50,50,0,0,1,6.23,13,51.46,51.46,0,0,1,.6,29c-2.64,9.49-8.13,17.87-10.92,27.3a35.5,35.5,0,0,0-1.39,14.23,54.42,54.42,0,0,0,3.79,13.75c3.69,9.22,8.46,18,10.07,27.91,3.51,21.57-5.64,43-15,61.94-1.19,2.42-2.42,4.84-3.65,7.25-.42.83.83,1.57,1.26.73,9.61-18.82,19.69-39.21,19.56-60.85A59,59,0,0,0,1056.88,1021.44Z"/><path class="cls-2" d="M570.78,871.18a86.52,86.52,0,0,0-24.45-36c-.7-.62-1.73.41-1,1a85.59,85.59,0,0,1,20.35,26.55,82.59,82.59,0,0,1,3.72,8.84C569.69,872.44,571.09,872.06,570.78,871.18Z"/><path class="cls-2" d="M203.85,978.48c-20.26-.81-40.14-5.23-59.54-10.89-9.68-2.83-19.26-6-28.82-9.13-8.9-3-17.83-5.83-26.51-9.39a109.59,109.59,0,0,1-24.17-13.23,76.77,76.77,0,0,1-15.42-15.55A89.67,89.67,0,0,1,33,880.08a90.94,90.94,0,0,1,4.07-43.81q.9-2.53,2-5c.37-.85-.89-1.59-1.26-.73a91.11,91.11,0,0,0-6.9,44,92.69,92.69,0,0,0,14,41.81,79.94,79.94,0,0,0,14.37,16.87,93.32,93.32,0,0,0,22,14.1,237.34,237.34,0,0,0,26.24,10.08c9.66,3.24,19.34,6.46,29.08,9.45,19.45,6,39.32,11,59.65,12.68q3.8.31,7.6.46C204.79,980,204.78,978.52,203.85,978.48Z"/><path class="cls-2" d="M117.75,1002.18c-.32-1.75-.65-3.51-1-5.26-.17-.92-1.57-.53-1.4.38.21,1.14.42,2.27.62,3.41-10.8-7.9-21.46-16-31.57-24.78a229.42,229.42,0,0,1-29-29.63,142.81,142.81,0,0,1-21-34.88,116.26,116.26,0,0,1-8.84-39,87.37,87.37,0,0,1,6.71-38.47q1-2.3,2.13-4.52c.43-.83-.83-1.57-1.25-.74A86.38,86.38,0,0,0,24,867.14a113.28,113.28,0,0,0,7,39.65,138.25,138.25,0,0,0,19.84,36,215.9,215.9,0,0,0,28.57,30.65c10.49,9.42,21.64,18.07,33,26.42l4.23,3.1C117.24,1003.41,117.85,1002.74,117.75,1002.18Z"/><path class="cls-2" d="M260.14,1035.57c-3.37-3-8.27-3-12.49-2.53-10.75,1.1-21.43,2.87-32.18,4-19.37,2-39.31,2.31-57.9-4.29a67.46,67.46,0,0,1-25-15.34.73.73,0,0,0-1,1c12.28,12.18,29.16,18.29,46.06,20.43,20.48,2.6,41.11-.67,61.41-3.3,2.89-.37,5.79-.77,8.69-1.06a21.47,21.47,0,0,1,7.95.29,8.36,8.36,0,0,1,5.22,3.94,5.51,5.51,0,0,1,.15,5.66c-.49.8.77,1.53,1.26.74C264.19,1042,262.75,1037.91,260.14,1035.57Z"/><path class="cls-2" d="M531.86,1022.85c-.15-.92-1.55-.53-1.41.39,1.43,8.83,2.91,17.91,1.53,26.84-1.05,6.79-4,13.5-9,18.25a21.29,21.29,0,0,1-8.87,5,34,34,0,0,1-12.55.59c-4.37-.46-8.7-1.26-13-2L475,1069.87l-30.46-4.82c-.92-.15-1.31,1.25-.39,1.4l28.31,4.48c9.11,1.45,18.21,3.11,27.36,4.28a40.91,40.91,0,0,0,12.69,0,22.51,22.51,0,0,0,9.82-4.47c5.51-4.34,9-11,10.54-17.73C535.14,1043.05,533.46,1032.76,531.86,1022.85Z"/><path class="cls-2" d="M376.56,1039.93a275.73,275.73,0,0,0-39.08-1.29,163.72,163.72,0,0,0-18.25,1.39c-5,.76-10.08,2.45-13.47,6.42-6.45,7.56-4.89,18.73-4.84,27.9a138.21,138.21,0,0,1-17.43,67.58c-.71,1.27-1.43,2.52-2.18,3.76a.73.73,0,0,0,1.26.73,139.54,139.54,0,0,0,19.66-65.32c.25-5.36,0-10.71,0-16.08,0-4.7.3-9.67,2.32-14,2.22-4.73,6.38-7.55,11.35-8.85a47.33,47.33,0,0,1,7.75-1.21c3.17-.29,6.35-.51,9.53-.68a275.72,275.72,0,0,1,38.56.63c1.61.14,3.22.29,4.83.46C377.49,1041.48,377.48,1040,376.56,1039.93Z"/><path class="cls-2" d="M632.36,807.43c-1.05-5.71-5.08-10.06-9.67-13.33-9.42-6.71-24-10.44-26.36-23.51a19.33,19.33,0,0,1,5.4-17.16c.68-.65-.35-1.68-1-1A20.55,20.55,0,0,0,594.59,767a20.34,20.34,0,0,0,6.22,14.79c4.41,4.37,10.1,7.06,15.45,10.06,5.16,2.9,10.69,6.42,13.38,11.92,2.42,5,2.34,12.17-2.52,15.67-.75.54,0,1.8.74,1.25C632,817.64,633.25,812.31,632.36,807.43Z"/><path class="cls-2" d="M1024.36,1031.51c-.13-.93-1.53-.53-1.4.38.65,4.73-3.4,8.83-7.68,10-5,1.41-10.38-1.05-14.21-4.24-4.34-3.62-7.33-8.5-10.55-13.07a66.35,66.35,0,0,0-10.58-11.87,63.12,63.12,0,0,0-14.76-9.57c-.84-.39-1.58.86-.73,1.26a61.56,61.56,0,0,1,14.23,9.14,67.81,67.81,0,0,1,11.42,13c3.3,4.76,6.54,9.71,11.25,13.2,4.1,3,9.61,5.08,14.68,3.47S1025.1,1036.92,1024.36,1031.51Z"/><path class="cls-2" d="M1036.52,1051.37c-.51-.78-1.77,0-1.25.73,3.67,5.6,2.93,12.67.59,18.62a66.36,66.36,0,0,1-4.8,9.29c-1.9,3.23-3.83,6.45-5.74,9.67s-3.68,6.49-5.72,9.6c-1.32,2-4.06,4.72-6.34,2.27-1.67-1.79-1.85-4.64-2.44-6.9a24.51,24.51,0,0,0-3.4-7.51,25.75,25.75,0,0,0-14.64-10.56.73.73,0,0,0-.39,1.4,24.23,24.23,0,0,1,14,10.22,24.73,24.73,0,0,1,3.34,8.17c.5,2.28,1,5.06,2.95,6.63,2.24,1.83,5,.77,6.78-1.16a23.58,23.58,0,0,0,2.59-3.8l3.14-5.29,6.19-10.42a87.92,87.92,0,0,0,5.24-9.69C1039.54,1066,1040.75,1057.8,1036.52,1051.37Z"/><path class="cls-2" d="M760.34,1164.68c-10.19-8.29-19.89-17.18-29.29-26.37s-18.42-18.63-27.42-28.15q-7-7.38-14-14.79c-4.61-4.89-9.33-9.71-13.72-14.81-8.36-9.71-14.55-21-22.84-30.81-7.09-8.35-16.39-15.84-27.41-17.89a32.46,32.46,0,0,0-4.05-.5c-.93-.06-.93,1.39,0,1.45,11.31.73,21.1,7.69,28.53,15.81,8.45,9.24,14.49,20.34,22.32,30.06,4.19,5.2,8.85,10,13.43,14.84l13.87,14.7c8.92,9.45,17.87,18.86,27.09,28s18.77,18.09,28.76,26.45q1.83,1.53,3.68,3C760,1166.3,761.07,1165.27,760.34,1164.68Z"/><path class="cls-2" d="M466.67,1090a152.93,152.93,0,0,0-18.56,66.39c-.05.94,1.41.94,1.45,0a151.77,151.77,0,0,1,11.81-52.09,148.61,148.61,0,0,1,6.56-13.57C468.38,1089.94,467.12,1089.2,466.67,1090Z"/><path class="cls-2" d="M417.71,1202a107.34,107.34,0,0,1-36-14.91,110.54,110.54,0,0,1-28.43-26.42A106,106,0,0,1,342,1141.88c-.4-.85-1.65-.11-1.26.73a108.59,108.59,0,0,0,22.89,32,112.25,112.25,0,0,0,32.63,22,106.48,106.48,0,0,0,18.56,6.21l-1.73.56c-.89.28-.51,1.69.39,1.4l4.23-1.36C418.35,1203.22,418.45,1202.18,417.71,1202Z"/><path class="cls-2" d="M777.74,1178.28a116.93,116.93,0,0,1-42.15-4.65,172.66,172.66,0,0,1-39.24-17.37,336.42,336.42,0,0,1-35.73-24.83c-11.82-9.21-23.39-18.74-35-28.16L589,1073.68,584.5,1070c-.72-.59-1.76.44-1,1l37,30c11.85,9.58,23.63,19.26,35.6,28.7A380,380,0,0,0,691.51,1155a183.55,183.55,0,0,0,38.82,18.48A122.65,122.65,0,0,0,772.5,1180c1.75,0,3.49-.16,5.24-.3C778.66,1179.66,778.67,1178.21,777.74,1178.28Z"/><path class="cls-2" d="M520.92,1302.19a144.88,144.88,0,0,1-42.18-32.48,149.44,149.44,0,0,1-28-45.4,142.53,142.53,0,0,1-7.92-28.88c-.15-.92-1.55-.53-1.4.39a145.78,145.78,0,0,0,18.49,50.6,151,151,0,0,0,35,40.64,143.12,143.12,0,0,0,25.28,16.38C521,1303.86,521.76,1302.61,520.92,1302.19Z"/><path class="cls-2" d="M747.87,1329.18c-7.66-2.63-15.56.86-22,4.93-3.38,2.15-6.62,4.51-10.1,6.48a56.6,56.6,0,0,1-10.62,4.64,57.9,57.9,0,0,1-44-3.52,58.53,58.53,0,0,1-18.77-15.26c-.59-.73-1.61.3-1,1a59,59,0,0,0,59.74,20.41,58.94,58.94,0,0,0,10.88-3.72,71.82,71.82,0,0,0,10.32-5.93c7.29-4.85,16-10.8,25.21-7.65C748.37,1330.88,748.75,1329.48,747.87,1329.18Z"/><path class="cls-2" d="M829.39,1275a158.43,158.43,0,0,1-29,5.88,168,168,0,0,1-86.86-14.05,159.47,159.47,0,0,1-25.62-14.63c-1-.7-2-1.42-3-2.14-.76-.56-1.48.71-.74,1.26a159.35,159.35,0,0,0,25.54,15.34,167.13,167.13,0,0,0,28,10.47,170.63,170.63,0,0,0,29.24,5.37,167.38,167.38,0,0,0,30,.17,161,161,0,0,0,29.24-5.21c1.22-.34,2.44-.69,3.66-1.06A.73.73,0,0,0,829.39,1275Z"/><path class="cls-2" d="M813.43,1184.31c-11.48,14.43-27.27,24.84-44.33,31.54-19.43,7.64-40.34,10.48-61.08,11.32-19.12.78-38.33.26-57.44-.86l.32-.09c.88-.29.5-1.69-.39-1.4-1.46.47-2.93.87-4.4,1.21-1.11-.07-2.21-.13-3.31-.21q-16.38-1.1-32.7-2.9a107.58,107.58,0,0,1-14.92-6.74c-.38-1.13-.77-2.25-1.14-3.38a391.42,391.42,0,0,1-17.35-78.29l.49.26c15.81,8.27,31.29,17.15,47,25.64s31.35,16.45,47.8,23,33.55,11.62,51.09,14.14c17,2.44,34.48,2.39,51.33-1.32q3.17-.71,6.29-1.56a.73.73,0,0,0-.38-1.41l-.09,0a.55.55,0,0,0-.56-.25,186.82,186.82,0,0,1-106.19-20.59c-16.46-8.73-31.48-19.84-46.3-31.05-14.6-11-29.11-22.27-44.87-31.63q-3.82-2.28-7.76-4.39c-.4-9.41-.56-18.82-.56-28.24a35.14,35.14,0,0,1,11.14,2.82c6.93,3,12.77,8,18.07,13.31,5.52,5.54,10.54,11.55,15.94,17.2a87,87,0,0,0,17.64,14.6,85.25,85.25,0,0,0,43.77,12c1.7,0,3.39,0,5.08-.14a131.88,131.88,0,0,0,31.78,18.49,128.9,128.9,0,0,0,39.54,9.25c1.65.12,3.3.2,4.94.25.94,0,.94-1.43,0-1.46a127.13,127.13,0,0,1-39.75-7.76,129.88,129.88,0,0,1-34.35-18.92A81.67,81.67,0,0,0,724.39,1125c1.63-1,3.21-2.09,4.76-3.22.75-.55,0-1.81-.74-1.26a79.75,79.75,0,0,1-42.35,14.89,125.1,125.1,0,0,1-14.25-13.27,223.69,223.69,0,0,1-14.08-17.51c-4.48-6-8.91-12-13.77-17.75a120.38,120.38,0,0,0-15.82-15.46c-11.47-9.29-24.34-16.61-37.26-23.63-1.58-.87-3.17-1.72-4.75-2.58-.83-.44-1.56.81-.74,1.26,13,7,26.14,14.14,38,23.07a120.59,120.59,0,0,1,16.55,15c5.14,5.65,9.74,11.75,14.3,17.86s8.93,12,13.82,17.73a126.61,126.61,0,0,0,14.7,14.5c.37.31.75.59,1.12.9a84.72,84.72,0,0,1-42.63-9.62A78.32,78.32,0,0,1,623,1112.31c-5.49-5.43-10.45-11.35-15.75-17-5.09-5.4-10.54-10.63-17-14.41a38.58,38.58,0,0,0-16.29-5.22c0-13.88.38-27.75.82-41.61.12-3.74.25-7.48.37-11.23,0-.94-1.42-.93-1.45,0-.59,17.57-1.16,35.15-1.2,52.73a40.82,40.82,0,0,0-5.3.06c-9.67.77-18.85,4.23-28.47,5.26-7.53.8-15.87.27-22.33-4.09a20.13,20.13,0,0,1-4.1-3.72c-.6-.72-1.62.32-1,1,5,5.92,12.66,8.21,20.16,8.5,9.1.36,17.81-2.31,26.63-4.13a59.45,59.45,0,0,1,14.44-1.5c0,9.18.14,18.36.51,27.53-12.55-6.62-25.88-11.87-39.87-14.39-2.08-.38-4.16-.69-6.25-1-.93-.11-.92,1.35,0,1.46,16.29,2,31.78,7.88,46.2,15.57.12,2.62.24,5.24.4,7.86.36,6,.89,12,1.52,17.92a384.07,384.07,0,0,0-40.18-18.25c-2.05-.77-4.12-1.52-6.19-2.25-.89-.31-1.27,1.1-.39,1.41,16.18,5.66,31.73,12.94,46.94,20.82A378.32,378.32,0,0,0,589,1201.61c1.36,4.53,2.81,9,4.3,13.53-1.82-1-3.62-2.1-5.37-3.2-18.42-11.55-33.83-27.23-51.94-39.23a108.38,108.38,0,0,0-29-14c-11.21-3.31-22.9-4.6-34.53-5.21-10.3-.54-20.68-.53-31-1-12.69-26.9-25.13-53.93-37.7-80.9q-2.62-5.62-5.26-11.26c-.39-.85-1.65-.11-1.25.73q21.19,45.46,42.41,90.93c.07.14.13.29.2.44-10.87-.49-21.68-1.52-32.3-4.22-17.3-4.4-34.83-13.06-44.49-28.71a50.05,50.05,0,0,1-3.08-5.84c-.38-.85-1.64-.11-1.26.74,7.55,16.75,23.54,27.18,40.46,32.87,13.45,4.51,27.34,6,41.34,6.59,5.83,12.59,11.57,25.47,20.37,36.3,9.22,11.33,22,18.51,32.79,28.15s18.45,21.69,24.79,34.41c6.78,13.59,12.25,27.84,18,41.87q19.28,46.66,38.56,93.33l38.55,93.33q2.39,5.79,4.78,11.57c.35.85,1.76.48,1.4-.39q-19.35-46.86-38.72-93.73T542.35,1305c-6-14.41-11.67-29-18-43.2-5.6-12.55-12.05-24.88-20.92-35.47-9.31-11.12-21.65-18.45-32.47-27.9-11.35-9.9-18.58-22.85-25-36.3-1.29-2.72-2.56-5.44-3.85-8.16,6.46.26,12.94.37,19.4.55,12,.33,24.09.91,35.89,3.3a101.77,101.77,0,0,1,31.94,12.39c18.95,11.26,34.55,27.1,52.66,39.54,3.81,2.61,7.82,5.11,12,7.41.44,1.3.87,2.61,1.31,3.92q-9.18-1.2-18.32-2.63-32.54-5.09-64.53-13c-2.62-.64-5.23-1.31-7.83-2a.73.73,0,0,0-.39,1.4q32.31,8.37,65.27,13.85,13.13,2.19,26.31,3.89c7.2,20.92,15.41,41.48,23.34,62.12q5.82,15.16,11.34,30.45a282.18,282.18,0,0,1-32.88,2,194.34,194.34,0,0,1-34.73-3c-.92-.17-1.31,1.23-.39,1.4,20.51,3.76,41.48,3.73,62.17,1.66,2.12-.21,4.23-.45,6.34-.7q9.74,26.82,18.62,54,14.08,43.14,25.91,87,1.46,5.4,2.88,10.81a.73.73,0,0,0,1.4-.39q-11.49-43.68-25.22-86.75-10.4-32.6-22.07-64.78c18.23-2.23,36.28-5.78,54.26-9.47q17.69-3.63,35.36-7.3c.92-.19.53-1.59-.38-1.4-20.71,4.27-41.39,8.79-62.19,12.54-9.14,1.65-18.34,3.1-27.57,4.22q-3.56-9.8-7.22-19.54c-9.13-24.21-18.91-48.18-27.36-72.63q6.06.78,12.11,1.46c10.74,3.86,22.07,5.69,33.43,3.85,1.09-.18,2.16-.41,3.23-.66,18.51,1.19,37.09,1.76,55.62,1.32,21-.49,42.32-2.68,62.3-9.58,17.16-5.93,33.42-15.28,45.85-28.66q2.35-2.53,4.5-5.25C815,1184.61,814,1183.57,813.43,1184.31Zm-237.66-59q-.76-9.12-1.17-18.25c.92.5,1.84,1,2.75,1.53,15.91,9,30.52,20,45,31,14.82,11.24,29.69,22.54,45.92,31.69a188,188,0,0,0,104.35,23.79,141,141,0,0,1-44.11,1.72c-17.5-2-34.64-6.67-51.11-12.84s-32.51-14.06-48.13-22.4-31.09-17.23-46.78-25.58c-2-1.07-4-2.12-6-3.17C576.23,1130.28,576,1127.78,575.77,1125.28Zm21.14,96c-.35-1-.69-2.07-1-3.1,2.74,1.45,5.55,2.79,8.4,4C601.82,1222,599.36,1221.64,596.91,1221.33Zm20.36,3.8q9,.91,18.06,1.61l4.54.33A63.46,63.46,0,0,1,617.27,1225.13Z"/><path class="cls-2" d="M354.59,1222.68a207.73,207.73,0,0,1-75.41-37.54,56.68,56.68,0,0,1-9.59-9,21.15,21.15,0,0,1-4.81-12.74c-.22-9.29,4.6-17.69,5.7-26.78.78-6.52,0-14.5-5.29-19.1-5.66-5-13.55-3.35-20.39-3-3.3.15-6.94.09-9.75-1.88-3.08-2.15-4.06-5.9-3.28-9.45a17.63,17.63,0,0,1,6.33-9.73c3.62-2.87,7.86-4.81,11.77-7.23,3.42-2.11,6.6-4.6,8.63-8.13,1.77-3.09,2.8-6.87,2-10.41a9.47,9.47,0,0,0-2.42-4.36c-.65-.68-1.68.35-1,1,2.66,2.76,2.71,6.72,1.53,10.18a18.81,18.81,0,0,1-7.62,9.28c-7,4.77-15.87,7.62-19.53,15.93-1.44,3.27-1.95,7.1-.33,10.41a10.58,10.58,0,0,0,7.76,5.53c7.05,1.29,14.44-1.66,21.37.65s9.22,10.22,9.08,17c-.2,9-4.63,17.16-5.72,26a23.22,23.22,0,0,0,2.07,13.42,34.22,34.22,0,0,0,8.27,10,174.9,174.9,0,0,0,22.3,16.23,209.8,209.8,0,0,0,51.34,23.32q3.33,1,6.67,1.88A.73.73,0,0,0,354.59,1222.68Z"/><path class="cls-2" d="M777.48,1200.7a259.89,259.89,0,0,1-61.63,8.94A269,269,0,0,1,654,1204a264.82,264.82,0,0,1-58.84-19.71c-18.71-8.86-35.73-20.45-53-31.83-16.77-11.08-34.13-21.87-53.48-27.84-2.43-.75-4.88-1.41-7.36-2-.91-.22-1.3,1.18-.38,1.4,20.08,4.78,38.11,15.14,55.28,26.28,17.36,11.27,34.22,23.3,52.77,32.61A264.23,264.23,0,0,0,647.29,1204a270.8,270.8,0,0,0,61.54,7.19,262.67,262.67,0,0,0,61.51-7.16q3.78-.9,7.53-1.92A.73.73,0,0,0,777.48,1200.7Z"/><path class="cls-2" d="M653.05,984.94A50.22,50.22,0,0,0,620,975.21,49.81,49.81,0,0,0,579,1002.85c-.41.83.84,1.57,1.25.73a48.91,48.91,0,0,1,22.1-22.15A47.62,47.62,0,0,1,634.94,978a48.41,48.41,0,0,1,17.38,8.19C653.07,986.75,653.79,985.49,653.05,984.94Z"/><path class="cls-2" d="M985,1149.56c-21.18-8.77-44.6-4-66.32-.16-20.91,3.7-44.63,6.76-63.85-4.5-8.78-5.14-15.65-12.79-22.21-20.44s-13.15-15.55-21.22-21.84c-16.32-12.72-36.51-19.56-56.84-22.31-24.64-3.32-49.59-.7-74.09,2.5-2.72.35-5.43.71-8.15,1.08a45.66,45.66,0,0,0-2-34.46,44.24,44.24,0,0,0-26.52-22.67,44.93,44.93,0,0,0-19.88-1.69.56.56,0,0,0-.51.64.73.73,0,0,0,.11,1.15l37.71,24,10.55,6.71a43.56,43.56,0,0,1-1.18,27,.73.73,0,0,0,.71.92c7.56-1,15.16-2,22.77-2.89a.6.6,0,0,0,.06.11,130.54,130.54,0,0,0,32.63,26.65c3.46,2,7,3.83,10.65,5.5.84.38,1.58-.87.73-1.26a129.59,129.59,0,0,1-34.75-23.41c-2.63-2.49-5.14-5.09-7.56-7.78,16.91-1.87,33.9-2.93,50.88-1.5,21,1.77,42.11,7.68,59.58,19.73,8.61,5.94,15.62,13.47,22.37,21.38,6.41,7.5,12.77,15.18,20.77,21,17.21,12.64,39.23,12.31,59.44,9.41,22.31-3.21,45.47-10.06,67.94-4.16a61.91,61.91,0,0,1,7.85,2.65C985.43,1151.32,985.81,1149.91,985,1149.56ZM634.88,1032.42l-9.55-6.07a44.19,44.19,0,0,1,31.38,8.77A42,42,0,0,1,671,1055.41Z"/><path class="cls-2" d="M905.82,1192.1a21.26,21.26,0,0,0-2.81-1.8c-.83-.44-1.56.81-.74,1.26,8.05,4.33,11.94,13.37,12.25,22.19.38,10.37-4.33,19.83-10.69,27.75a116.08,116.08,0,0,1-11.44,12c-4.53,4.22-9.18,8.33-13.86,12.39q-14.53,12.61-29.76,24.37c-8.88,6.85-18.62,14-30,15.63a32.12,32.12,0,0,1-4.38.29.73.73,0,0,0,0,1.46c11.9,0,22.39-6.55,31.62-13.44,10.48-7.82,20.62-16.15,30.54-24.66q7.44-6.37,14.68-13a138.5,138.5,0,0,0,12.13-12.22c6.79-8,12.29-17.49,12.65-28.17C916.29,1207.25,913.18,1197.66,905.82,1192.1Z"/><path class="cls-2" d="M579.65,907.71l-34.38.27a30.12,30.12,0,0,0-2.25-3.12c-4.46-5.36-10.66-8.84-16.57-12.35-5.71-3.39-11.51-7-15.54-12.44A21.18,21.18,0,0,1,507,871.7c-.79-3.9-.24-7.94.4-11.82A93.72,93.72,0,0,0,508.89,847a69.39,69.39,0,0,0-1-13.19c-.15-.92-1.55-.53-1.4.38a70.72,70.72,0,0,1-.19,23.45,52.44,52.44,0,0,0-1.12,11.23,21.23,21.23,0,0,0,2.62,9.17c6.7,12.17,21.16,15.83,31,24.63a30.09,30.09,0,0,1,4.73,5.37l-22.34.17-16.33.12a.73.73,0,0,0,0,1.46l39.58-.3A17.9,17.9,0,0,1,547.05,922c-.18.92,1.22,1.31,1.4.39a19.32,19.32,0,0,0-2.33-12.92l17.2-.13,16.33-.12A.73.73,0,0,0,579.65,907.71Z"/><path class="cls-2" d="M605.55,879c-12.31-5.54-20.13-17.14-25.92-28.86-1.77-3.59-3.4-7.25-5-10.91-.38-.85-1.64-.11-1.26.74,5.59,12.55,11.51,25.64,22.37,34.57a40.37,40.37,0,0,0,9.1,5.71C605.66,880.67,606.4,879.42,605.55,879Z"/><path class="cls-2" d="M618.76,830.49l-1-1.19a.57.57,0,0,0-.79-.14,88.29,88.29,0,0,0-44.31-17.6c-.93-.1-.92,1.36,0,1.45a87.38,87.38,0,0,1,45.05,18.51A.73.73,0,0,0,618.76,830.49Z"/><path class="cls-2" d="M674,926.52l-23.77,5.91a.73.73,0,0,0,.39,1.4l23.77-5.91C675.27,927.7,674.89,926.29,674,926.52Z"/><path class="cls-2" d="M800.5,887.46a293.07,293.07,0,0,1-68.45,24.82c0-.39,0-.78,0-1.18a55.26,55.26,0,0,0-1.87-14.75.73.73,0,0,0-1.4.39,54,54,0,0,1,1.77,15.89l-1,.22q-10.42,2.29-21,3.83c-.92.13-.53,1.53.39,1.4,7.2-1.05,14.35-2.39,21.46-4A58.79,58.79,0,0,1,719,945.5a53.37,53.37,0,0,1-10.13,10.29c-.73.56,0,1.82.74,1.25A56.92,56.92,0,0,0,726,936.72a60.24,60.24,0,0,0,6-23c4.76-1.08,9.5-2.24,14.2-3.55a296.11,296.11,0,0,0,35.71-12.5q9.83-4.15,19.33-9C802.06,888.29,801.33,887,800.5,887.46Z"/><path class="cls-2" d="M800,1035.67a82.4,82.4,0,0,1-29.91-4.41c-.89-.31-1.27,1.1-.39,1.4a83.45,83.45,0,0,0,30.3,4.46C800.91,1037.09,800.91,1035.63,800,1035.67Z"/><path class="cls-2" d="M809.34,928.78a130.34,130.34,0,0,1-48.8,3.38,128.56,128.56,0,0,1-13.78-2.43c-.91-.21-1.3,1.19-.38,1.4a131.94,131.94,0,0,0,49.46,1.93,129,129,0,0,0,13.88-2.88A.73.73,0,0,0,809.34,928.78Z"/><path class="cls-2" d="M811.63,983c.93.07.93-1.39,0-1.45-18.3-1.18-37.59-1.46-54.41,6.93-.56.28-1.11.58-1.66.88-.79-.31-1.59-.63-2.37-1-5-2.28-9.58-5.6-12.44-10.39-2.7-4.51-3.52-10-.8-14.7,2.59-4.49,7.37-7.25,11.82-9.59,5.58-2.94,11.25-5.76,17-8.3,11.54-5.09,24.08-9.08,36.83-8a46.14,46.14,0,0,1,4.7.63c.92.17,1.31-1.23.39-1.4-12.83-2.37-25.73.65-37.65,5.42-6.12,2.44-12,5.32-17.92,8.3-4.83,2.45-10,4.85-13.81,8.78A15,15,0,0,0,737.17,973c1.16,5.15,4.64,9.65,8.8,12.78a35.39,35.39,0,0,0,7.92,4.45,48.37,48.37,0,0,0-14.61,12.81,37,37,0,0,0-7.31,20.79c-.28,8.2,2.31,16.52,8.06,22.49.65.68,1.68-.35,1-1-10.28-10.7-9.55-28.15-1.64-39.95a45.73,45.73,0,0,1,16.2-14.44c7.6,2.78,16,3.65,23.88,4.9,10.22,1.62,21.5,4.35,28.69,12.36a24.7,24.7,0,0,1,2.36,3.11c.5.78,1.76.05,1.25-.74-5.6-8.71-15.69-12.77-25.42-14.93-9.57-2.12-19.66-2.5-29-5.65a70.79,70.79,0,0,1,22.49-6.73C790.41,981.86,801.07,982.28,811.63,983Z"/><path class="cls-2" d="M327.47,971.86a120.72,120.72,0,0,1-26.5-21.3c-.64-.68-1.67.35-1,1a121.72,121.72,0,0,0,26.8,21.52A.72.72,0,0,0,327.47,971.86Z"/><path class="cls-2" d="M265.77,911a70.17,70.17,0,0,1-9.7-17c-.34-.86-1.75-.49-1.4.39A72.9,72.9,0,0,0,264.74,912C265.31,912.77,266.34,911.73,265.77,911Z"/><path class="cls-2" d="M401.68,1001.48a195.5,195.5,0,0,1-44.94-12.23q-6.19-2.52-12.2-5.46c-.84-.41-1.57.85-.73,1.26a196.51,196.51,0,0,0,44.31,15.43c4.36,1,8.75,1.75,13.17,2.4C402.2,1003,402.6,1001.62,401.68,1001.48Z"/><path class="cls-2" d="M517.51,1009.13a149,149,0,0,1-79.92,1.33.73.73,0,0,0-.39,1.4,150.86,150.86,0,0,0,80.7-1.33A.73.73,0,0,0,517.51,1009.13Z"/><path class="cls-2" d="M401,987.5a70.33,70.33,0,0,1-44.1-2.31,68.08,68.08,0,0,1-11.41-5.74c-.79-.5-1.52.76-.73,1.25a71.63,71.63,0,0,0,44,10.5,70.54,70.54,0,0,0,12.65-2.29A.73.73,0,0,0,401,987.5Z"/><path class="cls-2" d="M463.12,940.3a173.76,173.76,0,0,1-26.52,28.16c-.72.61.32,1.64,1,1A175.46,175.46,0,0,0,464.38,941C464.94,940.28,463.68,939.56,463.12,940.3Z"/><path class="cls-2" d="M503.25,979.65a159.35,159.35,0,0,1-50.54,13.84q-7.31.75-14.65.81a.73.73,0,0,0,0,1.46,161.06,161.06,0,0,0,52.17-9.24q7-2.49,13.76-5.61C504.84,980.52,504.1,979.26,503.25,979.65Z"/><path class="cls-2" d="M975.21,1096.07a69.23,69.23,0,0,0-19.15-25.77,72,72,0,0,0-7-5.17,89.5,89.5,0,0,0-.15-23.86,86.58,86.58,0,0,0-2.47-11.59.68.68,0,0,0,0-.6l-.34-.67a.73.73,0,0,0-1.33.56,87.67,87.67,0,0,1,3,35.32c-7-4.4-14.5-8-21.69-12a177.28,177.28,0,0,1-26.53-19c-2.8-2.36-5.56-4.76-8.31-7.18a67.21,67.21,0,0,0,34.26-20.32c5.12-5.8,9.19-12.91,9.93-20.73.69-7.24-1.91-14.19-6.37-19.81a45.91,45.91,0,0,0-17.21-13c-8-3.6-16.62-5.51-25.11-7.62-14.36-3.57-30.76-8.71-38.6-22.46a27.74,27.74,0,0,1-2.19-4.92c-.3-.88-1.71-.51-1.41.38,4.77,14.2,19.19,21.89,32.67,25.94,15.72,4.73,33.32,6.4,46.1,17.71,5.24,4.63,9.42,10.69,10.51,17.71,1.25,8-1.87,15.78-6.46,22.13-8.8,12.19-22.94,20.4-37.47,23.76-5-4.37-9.91-8.77-15-13-1.2-1-2.41-2-3.63-3-.31-3.31-.63-6.61-1-9.92-1.17-11.6-1.87-23.53-5.23-34.77,0-.11-.08-.23-.11-.34a46.08,46.08,0,0,0,15.32.8c.91-.11.93-1.57,0-1.46a45.39,45.39,0,0,1-15.85-.94c-2.87-8.57-7.61-16.7-14.9-22.21a34.56,34.56,0,0,0-3.05-2,.73.73,0,0,0-.74,1.26c8.37,5,13.87,13.52,17,22.56a44.87,44.87,0,0,1-16.39-8.45c-.72-.59-1.75.43-1,1a46.91,46.91,0,0,0,18,9.06c3.5,11,4.24,22.69,5.4,34.08.34,3.36.68,6.71,1,10.07a165.21,165.21,0,0,0-20.89-14.68c-1.16-.67-2.33-1.32-3.51-2-.83-.44-1.56.82-.74,1.26a158.74,158.74,0,0,1,25.32,17.39q.8,8.45,1.41,16.91c-1.8-.09-3.6-.24-5.41-.46-6-.72-13.39-1.89-18.79,1.63a11.32,11.32,0,0,0-3.17,3.15c-.53.78.73,1.51,1.26.74,3.9-5.74,12-5,18.06-4.37,2.72.29,5.42.64,8.15.81.14,2.14.3,4.29.41,6.43.51,9.08.75,18.17.56,27.26q-5.58-2.87-11.26-5.51-12-5.57-24.45-10.05c-.89-.32-1.27,1.09-.39,1.4a299.87,299.87,0,0,1,36.06,15.78c-.07,2.68-.17,5.36-.32,8-.18,3-.4,6.08-.69,9.12s-.74,6.1-.91,9.16c-.28,4.83.52,10.24,4.4,13.57a10.14,10.14,0,0,0,2.79,1.67c.86.36,1.24-1,.38-1.4-5-2-6.3-8-6.16-12.79.08-3.06.55-6.1.85-9.14s.54-6.07.73-9.12c.17-2.78.28-5.57.36-8.36,1.48.78,3,1.56,4.41,2.36q10.06,5.52,19.67,11.79c6.13,4,12.25,8.21,17.18,13.68,5.42,6,9.28,13.82,8.77,22.07-.06.94,1.4.93,1.46,0,.44-7.25-2.39-14.33-6.7-20.06-4.46-5.92-10.39-10.5-16.48-14.63a288.45,288.45,0,0,0-28.27-16.83c.21-8.92,0-17.84-.46-26.75q-.21-3.83-.48-7.63l1.26,0a68.72,68.72,0,0,0,11.55-.87c1.27-.21,2.53-.46,3.79-.73,2,1.74,4,3.47,6,5.19a204.5,204.5,0,0,0,25.73,19.38c8.59,5.29,17.91,9.36,26.41,14.79-.37,2.7-.86,5.38-1.49,8-.56,2.42-1.25,4.8-2,7.16a.66.66,0,0,0-.44.46c-.44,1.49-.89,3-1.33,4.46-.27.92,1.07,1.24,1.4.39a87.89,87.89,0,0,0,5.21-19.61c.88.59,1.77,1.17,2.63,1.79a68,68,0,0,1,20.84,24.63c.6,1.2,1.16,2.42,1.68,3.65C974.32,1097.66,975.57,1096.92,975.21,1096.07Zm-102.53-69.55c-.37-5.22-.82-10.44-1.3-15.66,5.64,4.69,11.13,9.57,16.63,14.42A65.93,65.93,0,0,1,872.68,1026.52Z"/><path class="cls-2" d="M332.92,949.43a41.84,41.84,0,0,1-31.8-2.58c-.84-.43-1.57.83-.74,1.26a43.42,43.42,0,0,0,32.93,2.73C334.19,950.55,333.81,949.15,332.92,949.43Z"/><path class="cls-2" d="M401.12,925.32A68.76,68.76,0,0,1,374,936.13c-.93.15-.54,1.56.38,1.4a69.84,69.84,0,0,0,27.46-10.95C402.63,926.06,401.9,924.8,401.12,925.32Z"/><path class="cls-2" d="M533.22,809.3c-10.65,3.85-22.05,3.69-33.14,2.29-1.89-.24-3.78-.52-5.66-.81a35.94,35.94,0,0,0,3.74-3.16c4.5-4.38,7.95-10.13,8.35-16.51a20.43,20.43,0,0,0-.27-4.62.58.58,0,0,0-.71-.51c.59-1.21,1.17-2.42,1.7-3.66.37-.85-.88-1.59-1.25-.73a81.16,81.16,0,0,1-20,27.79c-6.67-1.16-13.34-2.36-20.08-3-9.61-1-19.44-.86-28.71,1.94l-.29-.23a104.09,104.09,0,0,0-27.81-15.25,107,107,0,0,0-31-6.37,99.72,99.72,0,0,0-31.57,3.29c-1.26.34-2.52.71-3.76,1.11-.89.28-.51,1.68.39,1.4a97.83,97.83,0,0,1,31.7-4.47,105.51,105.51,0,0,1,31.59,5.63,103.45,103.45,0,0,1,28.4,14.88l.7.55c-.5.16-1,.33-1.48.52A59.4,59.4,0,0,0,410.31,826c-.3.34-.57.7-.86,1l-2.87-.63c-8.49-1.82-17.25-3.43-25.91-1.87-13.85,2.48-24.7,12.81-31.93,24.38a70.23,70.23,0,0,0-9.28,21.46,32.33,32.33,0,0,0-.36,13.14,91.09,91.09,0,0,1-8.5-18.13,94.77,94.77,0,0,1-4.74-39,87.6,87.6,0,0,1,4.78-21.68c.32-.88-1.08-1.26-1.4-.38a91.19,91.19,0,0,0-4.75,39.56,96,96,0,0,0,11.94,38c1.29,2.29,2.73,4.49,4.23,6.65.12.28.27.56.41.85a110,110,0,0,1-9.56-9.24l-15.23-15.42c-5.06-5.13-10.06-10.31-15.19-15.37-4-3.94-8.84-8.14-14.67-8.7a11.64,11.64,0,0,0-1.18,0,38.27,38.27,0,0,0,5.82-7.63,91.41,91.41,0,0,1,40.16-34.61c.86-.38.12-1.63-.73-1.25A92.81,92.81,0,0,0,293,827.55c-1.59,2.2-3,4.5-4.52,6.76a23.39,23.39,0,0,1-5.36,6.15,9,9,0,0,1-.82.55.63.63,0,0,0-.29.16,9.22,9.22,0,0,1-5.78,1.18A7.3,7.3,0,0,1,273,841.2c.35-1,.71-2,1.06-3,.28-.79-.8-1.17-1.26-.62a137.47,137.47,0,0,1,7-35.51c1.25-3.71,2.67-7.36,4.23-10.94.37-.85-.88-1.59-1.25-.74a139.07,139.07,0,0,0-10.77,40c-.34,3-.55,6-.7,9a5.2,5.2,0,0,1-.34-.8.76.76,0,0,0-1.19-.34,76.46,76.46,0,0,1-.92-49.26,73.87,73.87,0,0,1,5.69-13.17c.46-.82-.8-1.56-1.25-.74a77.88,77.88,0,0,0-8.49,50.05,75,75,0,0,0,3.81,14.2.78.78,0,0,0,1.21.32,6.62,6.62,0,0,0,1.37,2c0,.23,0,.46,0,.69a.72.72,0,0,0,1.35.32,10.21,10.21,0,0,0,7.46,1,10.53,10.53,0,0,0,2.95-1.21c5.94-1.36,11.38,2.65,15.51,6.46,2.43,2.26,4.71,4.68,7,7l7.62,7.71,15.11,15.3c2.41,2.44,4.81,4.9,7.24,7.32a50.8,50.8,0,0,0,6.51,5.66c.31.23.65.41,1,.61a19,19,0,0,0,3.36,3.58.94.94,0,0,0,.24.13c1.11,1.3,2.24,2.58,3.43,3.8a.73.73,0,0,0,.88.11,115.52,115.52,0,0,0,10-6.81,44.67,44.67,0,0,0,10.27-8.19c.88-.87,1.74-1.76,2.61-2.64q3.21-3,6.3-6c8.89-8.72,17.34-17.89,26.44-26.39a33.2,33.2,0,0,1,8.94-5.22c5-1.84,10.86-2.2,15.73.15a14.52,14.52,0,0,1,3.36,2.25c.69.62,1.73-.41,1-1-4-3.58-9.5-4.76-14.75-4.14a26,26,0,0,0-8.06,2.38,117.21,117.21,0,0,1,18-13A82.74,82.74,0,0,0,455,828.24c1.22,1.42,2.47,2.83,3.77,4.18,4,4.16,8.55,7.84,14.07,9.7,4.86,1.64,10.37,1.92,15.11-.24a15.18,15.18,0,0,0,3.27-2c.73-.59-.3-1.61-1-1-4.25,3.39-10,3.77-15.13,2.46-5.71-1.47-10.42-5-14.51-9.11-1.39-1.4-2.72-2.87-4-4.36A80.73,80.73,0,0,0,475.69,819l.79-.51c1.2-.29,2.4-.58,3.59-.92A46.41,46.41,0,0,0,492.69,812c1.45.23,2.9.46,4.36.67,10.8,1.53,21.95,2.22,32.6-.68,1.33-.36,2.65-.78,4-1.25C534.48,810.39,534.1,809,533.22,809.3Zm-28.33-22c1.43,9.7-4.73,17.87-12.6,23.18l-4.47-.75A82.14,82.14,0,0,0,504.89,787.27Zm-41.5,20.27c7.14.59,14.21,1.83,21.27,3.06a80.52,80.52,0,0,1-6.72,5.22q-1,.69-2,1.35c-5.66,1.32-11.45,2.1-17.17,3.09-2.48.43-4.92.92-7.35,1.5-.89-1-1.78-2-2.71-3a96.29,96.29,0,0,0-10.05-9.32A71.08,71.08,0,0,1,463.39,807.54Zm-31.28,4.13q2.38-1,4.82-1.78a95.08,95.08,0,0,1,10,9.06q1.49,1.57,2.9,3.21a75.81,75.81,0,0,0-11.05,3.69,81.64,81.64,0,0,0-8.33,4.13,80,80,0,0,1-10.71-1c-2.91-.47-5.79-1.07-8.66-1.69A58.74,58.74,0,0,1,432.11,811.67ZM354,896.38c-1.12.74-2.26,1.44-3.4,2.14-1.25-1.3-2.44-2.65-3.6-4a16,16,0,0,0,8.74.69C355.15,895.58,354.58,896,354,896.38Zm21.87-18.16-2.62,2.7a166.33,166.33,0,0,1-12.84,10.89c-4.53,2.45-9.48,3.29-14.8.56-.21-.1-.39-.22-.59-.33-1-1.32-2-2.67-3-4a26.3,26.3,0,0,1-1.87-13.17c.82-8,4.32-15.74,8.26-22.64,6.78-11.85,17.17-22.79,30.91-26,8.45-1.94,17.15-.52,25.49,1.24l3.58.76a57.48,57.48,0,0,0-11.24,23.51c-.26,1.19-.46,2.38-.64,3.58a.81.81,0,0,0,1,.89c-2.1,2.11-4.16,4.26-6.24,6.37Zm33-32.36c-1.08,1-2.11,2-3.17,3l-.4.3a87.9,87.9,0,0,0-7.38,6.68l0-.07a55.83,55.83,0,0,1,11.48-26.46l.58-.68a120.36,120.36,0,0,0,18.11,2.75A130,130,0,0,0,408.87,845.86ZM433.41,830c1.1-.58,2.21-1.13,3.34-1.67a77.12,77.12,0,0,1,14.1-5c1,1.22,2.07,2.44,3.11,3.65A80.6,80.6,0,0,1,433.41,830Zm22.08-3.41c-1-1.19-2-2.39-3.05-3.59,1.29-.3,2.59-.58,3.9-.83,5.25-1,10.57-1.7,15.82-2.71A80.19,80.19,0,0,1,455.49,826.58Zm26.71-11.15c-.7.23-1.41.44-2.12.65a81.25,81.25,0,0,0,6.41-5.16l4,.68A41.54,41.54,0,0,1,482.2,815.43Z"/><path class="cls-2" d="M986.94,1157.64a223.56,223.56,0,0,1-218.45-38.41c-14.6-12.06-28.13-25.52-44-36-2-1.31-4-2.56-6-3.76a.73.73,0,0,0-.74,1.25c16.67,9.89,30.64,23.43,45.31,35.93a236.44,236.44,0,0,0,46.6,31.41,226.35,226.35,0,0,0,52.62,18.9,225.59,225.59,0,0,0,117.94-5.47c2.36-.76,4.71-1.57,7-2.41C988.2,1158.73,987.82,1157.33,986.94,1157.64Z"/><path class="cls-2" d="M990,1158.52c-16.39,5.3-32.84,10.59-49.78,13.87a167.85,167.85,0,0,1-25.76,3.06,163.72,163.72,0,0,1-26.28-1.37c-8.78-1.1-17.49-2.72-26.16-4.42-8.41-1.65-16.82-3.36-25.14-5.4a220.5,220.5,0,0,1-24.53-7.4,193.85,193.85,0,0,1-22.67-10.24c-14.59-7.66-28.34-16.76-42-26l-5.06-3.44c-.77-.53-1.5.73-.73,1.25,13.73,9.35,27.5,18.71,42,26.77a206.13,206.13,0,0,0,46.37,18.88c8.34,2.24,16.78,4.07,25.24,5.78,8.69,1.75,17.39,3.46,26.15,4.78A189.65,189.65,0,0,0,908,1177a154,154,0,0,0,25.64-2c17.27-2.7,34.05-7.8,50.66-13.12l6.09-2C991.31,1159.64,990.93,1158.23,990,1158.52Z"/><path class="cls-2" d="M813.3,1230.68a60.18,60.18,0,0,0-15.52-31.51q-1.53-1.59-3.2-3c-.7-.62-1.73.41-1,1a57.49,57.49,0,0,1,17.68,30.53c2.83,12.44,1.7,25.42-2.27,37.48-4.2,12.77-11.5,23.95-20.16,34.13s-18.12,19.49-24.83,31c-6.2,10.61-10.25,23.43-7.57,35.74a34.77,34.77,0,0,0,1.29,4.45c.31.87,1.72.49,1.4-.39-4.44-12.27-1.13-25.66,4.86-36.79,6.38-11.85,16-21.48,24.72-31.59a134.89,134.89,0,0,0,12-15.82,92.68,92.68,0,0,0,8.72-17.63A73.18,73.18,0,0,0,813.3,1230.68Z"/><circle class="cls-3" cx="676.5" cy="522.02" r="7.02"/><circle class="cls-3" cx="605.24" cy="494.39" r="7.02"/><circle class="cls-3" cx="739.03" cy="561.29" r="7.02"/><circle class="cls-3" cx="568.27" cy="492.94" r="7.02"/><circle class="cls-3" cx="726.78" cy="602.75" r="7.02"/><circle class="cls-3" cx="585.72" cy="573.66" r="7.02"/><circle class="cls-3" cx="533.83" cy="508.22" r="7.02"/><circle class="cls-3" cx="835.54" cy="601.2" r="7.02"/><circle class="cls-3" cx="825.36" cy="612.83" r="7.02"/><circle class="cls-3" cx="802.09" cy="637.56" r="7.02"/><circle class="cls-3" cx="828.27" cy="644.83" r="7.02"/><circle class="cls-3" cx="778.82" cy="653.55" r="7.02"/><circle class="cls-3" cx="700.91" cy="636.84" r="7.02"/><circle class="cls-3" cx="865.24" cy="708.1" r="7.02"/><circle class="cls-3" cx="950.33" cy="720.85" r="7.02"/><circle class="cls-3" cx="922.7" cy="715.03" r="7.02"/><circle class="cls-3" cx="893.61" cy="755.29" r="7.02"/><circle class="cls-3" cx="877.62" cy="778.56" r="7.02"/><circle class="cls-3" cx="809.27" cy="752.38" r="7.02"/><circle class="cls-3" cx="1029.39" cy="819.43" r="7.02"/><circle class="cls-3" cx="1011.93" cy="812.16" r="7.02"/><circle class="cls-3" cx="1016.3" cy="982.37" r="7.02"/><circle class="cls-3" cx="1023.57" cy="1030.85" r="7.02"/><circle class="cls-3" cx="963.94" cy="1004.68" r="7.02"/><circle class="cls-3" cx="881.05" cy="963.09" r="7.02"/><circle class="cls-3" cx="846.74" cy="919.46" r="7.02"/><circle class="cls-3" cx="851.1" cy="894.74" r="7.02"/><circle class="cls-3" cx="858.37" cy="852.57" r="7.02"/><circle class="cls-3" cx="843.83" cy="1031.44" r="7.02"/><circle class="cls-3" cx="769.66" cy="1031.63" r="7.02"/><circle class="cls-3" cx="945.63" cy="1028.72" r="7.02"/><circle class="cls-3" cx="1035.33" cy="1050.56" r="7.02"/><circle class="cls-3" cx="1038.23" cy="1097.1" r="7.02"/><circle class="cls-3" cx="991.7" cy="1076.74" r="7.02"/><circle class="cls-3" cx="975.7" cy="1097.1" r="7.02"/><circle class="cls-3" cx="942.25" cy="1086.92" r="7.02"/><circle class="cls-3" cx="924.8" cy="1114.55" r="7.02"/><circle class="cls-3" cx="877.77" cy="1105.36" r="7.02"/><circle class="cls-3" cx="988.3" cy="1154.8" r="7.02"/><circle class="cls-3" cx="892.32" cy="1153.35" r="7.02"/><circle class="cls-3" cx="901.04" cy="1191.31" r="7.02"/><circle class="cls-3" cx="813.79" cy="1184.04" r="7.02"/><circle class="cls-3" cx="828.33" cy="1275.94" r="7.02"/><circle class="cls-3" cx="813.79" cy="1307.93" r="7.02"/><circle class="cls-3" cx="749.98" cy="1329.65" r="7.02"/><circle class="cls-3" cx="758.71" cy="1370.37" r="7.02"/><circle class="cls-3" cx="722.35" cy="1299.11" r="7.02"/><circle class="cls-3" cx="679.53" cy="1468.95" r="7.02"/><circle class="cls-3" cx="641.72" cy="1327.24" r="7.02"/><circle class="cls-3" cx="683.89" cy="1250.17" r="7.02"/><circle class="cls-3" cx="563.66" cy="1314.15" r="7.02"/><circle class="cls-3" cx="520.74" cy="1303.97" r="7.02"/><circle class="cls-3" cx="651.62" cy="1224.92" r="7.02"/><circle class="cls-3" cx="504.74" cy="1204.56" r="7.02"/><circle class="cls-3" cx="781.48" cy="1191.81" r="7.02"/><circle class="cls-3" cx="777.12" cy="1201.99" r="7.02"/><circle class="cls-3" cx="794.57" cy="1196.17" r="7.02"/><circle class="cls-3" cx="780.03" cy="1180.18" r="7.02"/><circle class="cls-3" cx="761.12" cy="1164.18" r="7.02"/><circle class="cls-3" cx="727.68" cy="1122.01" r="7.02"/><circle class="cls-3" cx="739.31" cy="1114.73" r="7.02"/><circle class="cls-3" cx="440.82" cy="1193.26" r="7.02"/><circle class="cls-3" cx="416.1" cy="1203.44" r="7.02"/><circle class="cls-3" cx="449.54" cy="1155.45" r="7.02"/><circle class="cls-3" cx="354.27" cy="1222.35" r="7.02"/><circle class="cls-3" cx="341.19" cy="1140.91" r="7.02"/><circle class="cls-3" cx="358.64" cy="1113.28" r="7.02"/><circle class="cls-3" cx="480.79" cy="1122.01" r="7.02"/><circle class="cls-3" cx="528.1" cy="1112.29" r="7.02"/><circle class="cls-3" cx="525.2" cy="1089.02" r="7.02"/><circle class="cls-3" cx="512.11" cy="1073.03" r="7.02"/><circle class="cls-3" cx="468.48" cy="1089.02" r="7.02"/><circle class="cls-3" cx="445.21" cy="1065.75" r="7.02"/><circle class="cls-3" cx="583.36" cy="1070.12" r="7.02"/><circle class="cls-3" cx="672.97" cy="1081.75" r="7.02"/><circle class="cls-3" cx="623.53" cy="1027.94" r="7.02"/><circle class="cls-3" cx="584.26" cy="1046.85" r="7.02"/><circle class="cls-3" cx="397.65" cy="1059.94" r="7.02"/><circle class="cls-3" cx="377.3" cy="1041.03" r="7.02"/><circle class="cls-3" cx="281.16" cy="1147.19" r="7.02"/><circle class="cls-3" cx="263.71" cy="1119.56" r="7.02"/><circle class="cls-3" cx="256.44" cy="1063.31" r="7.02"/><circle class="cls-3" cx="260.8" cy="1045.86" r="7.02"/><circle class="cls-3" cx="230.6" cy="998.21" r="7.02"/><circle class="cls-3" cx="344.03" cy="982.21" r="7.02"/><circle class="cls-3" cx="328.04" cy="973.49" r="7.02"/><circle class="cls-3" cx="373.12" cy="937.13" r="7.02"/><circle class="cls-3" cx="265.5" cy="951.67" r="7.02"/><circle class="cls-3" cx="229.74" cy="924.75" r="7.02"/><circle class="cls-3" cx="205.01" cy="980.02" r="7.02"/><circle class="cls-3" cx="162.84" cy="1010.55" r="7.02"/><circle class="cls-3" cx="130.85" cy="1017.83" r="7.02"/><circle class="cls-3" cx="117.11" cy="1003.28" r="7.02"/><circle class="cls-3" cx="188.37" cy="949.48" r="7.02"/><circle class="cls-3" cx="173.82" cy="899.29" r="7.02"/><circle class="cls-3" cx="229.09" cy="864.39" r="7.02"/><circle class="cls-3" cx="258.17" cy="889.11" r="7.02"/><circle class="cls-3" cx="124.38" cy="902.2" r="7.02"/><circle class="cls-3" cx="70.57" cy="899.29" r="7.02"/><circle class="cls-3" cx="175.28" cy="852.97" r="7.02"/><circle class="cls-3" cx="37.47" cy="828.25" r="7.02"/><circle class="cls-3" cx="38.92" cy="799.16" r="7.02"/><circle class="cls-3" cx="270.21" cy="838.43" r="7.02"/><circle class="cls-3" cx="284.75" cy="841.34" r="7.02"/><circle class="cls-3" cx="223.67" cy="802.07" r="7.02"/><circle class="cls-3" cx="80.38" cy="773.33" r="7.02"/><circle class="cls-3" cx="183.63" cy="747.15" r="7.02"/><circle class="cls-3" cx="329.61" cy="799.5" r="7.02"/><circle class="cls-3" cx="347.07" cy="790.78" r="7.02"/><circle class="cls-3" cx="303.44" cy="751.51" r="7.02"/><circle class="cls-3" cx="284.53" cy="790.78" r="7.02"/><circle class="cls-3" cx="274.35" cy="774.78" r="7.02"/><circle class="cls-3" cx="390.69" cy="764.6" r="7.02"/><circle class="cls-3" cx="422.69" cy="755.88" r="7.02"/><circle class="cls-3" cx="437.75" cy="841.68" r="7.02"/><circle class="cls-3" cx="491.56" cy="838.77" r="7.02"/><circle class="cls-3" cx="507.56" cy="834.41" r="7.02"/><circle class="cls-3" cx="463.93" cy="940.57" r="7.02"/><circle class="cls-3" cx="518.14" cy="1008.98" r="7.02"/><circle class="cls-3" cx="529.77" cy="1023.52" r="7.02"/><circle class="cls-3" cx="579.22" cy="1004.61" r="7.02"/><circle class="cls-3" cx="555.95" cy="975.53" r="7.02"/><circle class="cls-3" cx="505.05" cy="979.89" r="7.02"/><circle class="cls-3" cx="548.68" cy="921.72" r="7.02"/><circle class="cls-3" cx="579.22" cy="907.18" r="7.02"/><circle class="cls-3" cx="570.49" cy="872.49" r="7.02"/><circle class="cls-3" cx="573.4" cy="841.21" r="7.02"/><circle class="cls-3" cx="544.32" cy="836.85" r="7.02"/><circle class="cls-3" cx="534.14" cy="809.22" r="7.02"/><circle class="cls-3" cx="570.49" cy="812.13" r="7.02"/><circle class="cls-3" cx="505.05" cy="783.88" r="7.02"/><circle class="cls-3" cx="628.69" cy="820.23" r="7.02"/><circle class="cls-3" cx="602.52" cy="753.93" r="7.02"/><circle class="cls-3" cx="512.35" cy="745.2" r="7.02"/><circle class="cls-3" cx="480.36" cy="764.11" r="7.02"/><circle class="cls-3" cx="688.84" cy="835.36" r="7.02"/><circle class="cls-3" cx="642.77" cy="896.72" r="7.02"/><circle class="cls-3" cx="650.04" cy="933.08" r="7.02"/><circle class="cls-3" cx="652.95" cy="986.88" r="7.02"/><circle class="cls-3" cx="730.18" cy="895.27" r="7.02"/><circle class="cls-3" cx="747.63" cy="931.04" r="7.02"/><circle class="cls-3" cx="815.43" cy="842.67" r="7.02"/><circle class="cls-3" cx="793.61" cy="842.67" r="7.02"/><circle class="cls-3" cx="770.34" cy="793.22" r="7.02"/><circle class="cls-3" cx="761.62" cy="809.22" r="7.02"/><circle class="cls-3" cx="712.64" cy="802.16" r="7.02"/><circle class="cls-3" cx="698.1" cy="783.26" r="7.02"/><circle class="cls-3" cx="706.82" cy="735.98" r="7.02"/><circle class="cls-3" cx="676.28" cy="698.17" r="7.02"/><circle class="cls-3" cx="660.29" cy="721.44" r="7.02"/><circle class="cls-3" cx="603.26" cy="663.67" r="7.02"/><circle class="cls-3" cx="593.08" cy="692.76" r="7.02"/><circle class="cls-3" cx="513.1" cy="681.12" r="7.02"/><circle class="cls-3" cx="504.37" cy="633.13" r="7.02"/><circle class="cls-3" cx="464.58" cy="702.25" r="7.02"/><circle class="cls-3" cx="415.14" cy="668.81" r="7.02"/><circle class="cls-3" cx="402.05" cy="719.71" r="7.02"/><circle class="cls-3" cx="380.23" cy="703.71" r="7.02"/><circle class="cls-3" cx="366.5" cy="667.35" r="7.02"/><circle class="cls-3" cx="341.77" cy="651.36" r="7.02"/><circle class="cls-3" cx="357.77" cy="598.01" r="7.02"/><circle class="cls-3" cx="454.99" cy="518.96" r="7.02"/><circle class="cls-3" cx="411.36" cy="504.41" r="7.02"/><circle class="cls-3" cx="391" cy="513.14" r="7.02"/><circle class="cls-3" cx="367.73" cy="543.68" r="7.02"/><circle class="cls-3" cx="348.83" cy="543.68" r="7.02"/><circle class="cls-3" cx="335.8" cy="577.62" r="7.02"/><circle class="cls-3" cx="305.26" cy="589.26" r="7.02"/><circle class="cls-3" cx="303.81" cy="608.16" r="7.02"/><circle class="cls-3" cx="296.54" cy="651.79" r="7.02"/><circle class="cls-3" cx="231.44" cy="637.52" r="7.02"/><circle class="cls-3" cx="187.81" cy="688.42" r="7.02"/><circle class="cls-3" cx="170.36" cy="694.24" r="7.02"/><circle class="cls-3" cx="618.99" cy="1492.14" r="7.02"/></svg>